<?xml version="1.0" encoding="utf-8"?>
<!-- Generator: Adobe Illustrator 16.0.0, SVG Export Plug-In . SVG Version: 6.00 Build 0)  -->
<!DOCTYPE svg PUBLIC "-//W3C//DTD SVG 1.1//EN" "http://www.w3.org/Graphics/SVG/1.1/DTD/svg11.dtd">
<svg version="1.1" id="Layer_1" xmlns="http://www.w3.org/2000/svg" xmlns:xlink="http://www.w3.org/1999/xlink" x="0px" y="0px"
	 width="226.772px" height="226.772px" viewBox="0 0 226.772 226.772" enable-background="new 0 0 226.772 226.772"
	 xml:space="preserve">
<circle fill="none" stroke="#000000" stroke-width="2.249" cx="113.386" cy="113.387" r="97.539"/>
<path fill="#ED1C24" d="M86.465,157.624L59.746,194.11c-26.199-17.449-43.47-47.251-43.47-81.083
	c0-33.373,16.807-62.826,42.411-80.367l28.015,35.626c-15.152,9.142-25.285,25.759-25.285,44.741
	C61.417,131.91,71.444,148.453,86.465,157.624"/>
<path fill="none" stroke="#000000" stroke-width="0.54" stroke-miterlimit="10" d="M86.465,157.624L59.746,194.11
	c-26.199-17.449-43.47-47.251-43.47-81.083c0-33.373,16.807-62.826,42.411-80.367l28.015,35.626
	c-15.152,9.142-25.285,25.759-25.285,44.741C61.417,131.91,71.444,148.453,86.465,157.624"/>
<path fill="#ED1C24" d="M140.307,157.624l26.72,36.486c26.198-17.449,43.47-47.251,43.47-81.083
	c0-33.373-16.807-62.826-42.411-80.367L140.07,68.286c15.151,9.142,25.285,25.759,25.285,44.741
	C165.355,131.91,155.328,148.453,140.307,157.624"/>
<path fill="none" stroke="#000000" stroke-width="0.54" stroke-miterlimit="10" d="M140.307,157.624l26.72,36.486
	c26.198-17.449,43.47-47.251,43.47-81.083c0-33.373-16.807-62.826-42.411-80.367L140.07,68.286
	c15.151,9.142,25.285,25.759,25.285,44.741C165.355,131.91,155.328,148.453,140.307,157.624"/>
<path fill="#8ED8F8" d="M165.602,113.328c0,28.817-23.358,52.177-52.177,52.177c-28.816,0-52.177-23.36-52.177-52.177
	c0-28.815,23.361-52.177,52.177-52.177C142.243,61.151,165.602,84.513,165.602,113.328"/>
<path fill="none" stroke="#000000" stroke-width="0.54" stroke-miterlimit="10" d="M165.602,113.328
	c0,28.817-23.358,52.177-52.177,52.177c-28.816,0-52.177-23.36-52.177-52.177c0-28.815,23.361-52.177,52.177-52.177
	C142.243,61.151,165.602,84.513,165.602,113.328"/>
<path fill="#FFF200" d="M109.507,133.423c2.75,0.061,2.87-0.574,2.87-1.301c0-0.693-0.243-1.268-2.87-1.268
	c-2.387-0.029-2.869,0.574-2.869,1.268C106.638,132.849,107.242,133.361,109.507,133.423"/>
<path fill="none" stroke="#000000" stroke-width="0.361" d="M109.507,133.423c2.75,0.061,2.87-0.574,2.87-1.301
	c0-0.693-0.243-1.268-2.87-1.268c-2.387-0.029-2.869,0.574-2.869,1.268C106.638,132.849,107.242,133.361,109.507,133.423z"/>
<path fill="#FFF200" d="M106.82,134.995c2.719,0.06,2.869-0.575,2.869-1.271c0-0.724-0.242-1.297-2.869-1.297
	c-2.387,0-2.869,0.573-2.869,1.297C103.951,134.419,104.524,134.934,106.82,134.995"/>
<path fill="none" stroke="#000000" stroke-width="0.361" d="M106.82,134.995c2.719,0.06,2.869-0.575,2.869-1.271
	c0-0.724-0.242-1.297-2.869-1.297c-2.387,0-2.869,0.573-2.869,1.297C103.951,134.419,104.524,134.934,106.82,134.995z"/>
<path fill="#FFF200" d="M99.806,99.325c2.295-1.808,1.972-2.455,1.487-3.037c-0.484-0.581-1.101-0.872-3.266,0.938
	c-1.939,1.617-1.939,2.458-1.454,3.039C97.058,100.847,97.899,100.847,99.806,99.325"/>
<path fill="none" stroke="#000000" stroke-width="0.386" d="M99.806,99.325c2.295-1.808,1.972-2.455,1.487-3.037
	c-0.484-0.581-1.101-0.872-3.266,0.938c-1.939,1.617-1.939,2.458-1.454,3.039C97.058,100.847,97.899,100.847,99.806,99.325z"/>
<path d="M86.765,136.957c-0.726,1.48,0.604,2.931,0.332,4.472c-0.091,0.42-0.695,0.271-0.907,0.149
	c-1.903-1.236-2.899-3.11-3.865-5.073c-2.447-4.805-3.776-10.089-3.171-15.433c0.362-3.477,0.995-6.798,3.171-9.787
	c0.545-0.756,1.51-1.994,2.597-1.239c-1.238,9.12,5.045,16.943,12.595,21.654c0.241,0.152-0.121,0.637-0.212,0.666
	c-1.419,0.694-3.051,0.062-4.651-0.271c-0.12-0.03-0.3,0.211-0.18,0.362c5.376,4.803,11.78,8.154,16.492,8.154V84.342
	c-2.629-2.537-4.26-4.59-4.26-8.154c-0.12-4.682,4.47-9.363,9.362-9.363c4.684,0,9.574,4.378,9.574,9.877
	c0,4.498-3.354,6.31-4.59,7.248v56.781c6.191-0.57,12.142-4.227,16.643-8.274c-1.993-0.514-3.897,0.483-5.92-0.029
	c-0.303-0.062-0.272-0.423-0.183-0.546c2.81-2.627,6.071-4.349,8.701-7.188c3.925-4.259,5.587-9.693,5.737-15.281
	c1.752-0.151,2.144,1.66,2.749,2.715c2.205,3.99,2.537,8.519,2.083,12.989c-0.543,5.528-2.023,10.633-5.254,15.466
	c-0.425,0.603-1.663,1.603-1.783,0.816c-0.332-1.693,0.545-3.444,0.363-5.257c-0.03-0.151-0.243-0.332-0.363-0.18
	c-2.146,2.776-3.956,5.375-6.555,7.729c-4.953,4.472-10.933,6.252-16.675,9.455c-1.478,0.817-2.384,1.45-3.983,2.871
	c-1.028,0.905-2.055-1.784-3.384-2.567c-1.569-0.877-3.08-1.572-4.71-2.234c-3.444-0.817-16.31-8.249-19.876-14.559L86.765,136.957"
	/>
<path fill="none" stroke="#000000" stroke-width="1.04" stroke-miterlimit="2.613" d="M86.765,136.957
	c-0.726,1.48,0.604,2.931,0.332,4.472c-0.091,0.42-0.695,0.271-0.907,0.149c-1.903-1.236-2.899-3.11-3.865-5.073
	c-2.447-4.805-3.776-10.089-3.171-15.433c0.362-3.477,0.995-6.798,3.171-9.787c0.545-0.756,1.51-1.994,2.597-1.239
	c-1.238,9.12,5.045,16.943,12.595,21.654c0.241,0.152-0.121,0.637-0.212,0.666c-1.419,0.694-3.051,0.062-4.651-0.271
	c-0.12-0.03-0.3,0.211-0.18,0.362c5.376,4.803,11.78,8.154,16.492,8.154V84.342c-2.629-2.537-4.26-4.59-4.26-8.154
	c-0.12-4.682,4.47-9.363,9.362-9.363c4.684,0,9.574,4.378,9.574,9.877c0,4.498-3.354,6.31-4.59,7.248v56.781
	c6.191-0.57,12.142-4.227,16.643-8.274c-1.993-0.514-3.897,0.483-5.92-0.029c-0.303-0.062-0.272-0.423-0.183-0.546
	c2.81-2.627,6.071-4.349,8.701-7.188c3.925-4.259,5.587-9.693,5.737-15.281c1.752-0.151,2.144,1.66,2.749,2.715
	c2.205,3.99,2.537,8.519,2.083,12.989c-0.543,5.528-2.023,10.633-5.254,15.466c-0.425,0.603-1.663,1.603-1.783,0.816
	c-0.332-1.693,0.545-3.444,0.363-5.257c-0.03-0.151-0.243-0.332-0.363-0.18c-2.146,2.776-3.956,5.375-6.555,7.729
	c-4.953,4.472-10.933,6.252-16.675,9.455c-1.478,0.817-2.384,1.45-3.983,2.871c-1.028,0.905-2.055-1.784-3.384-2.567
	c-1.569-0.877-3.08-1.572-4.71-2.234c-3.444-0.817-16.31-8.249-19.876-14.559"/>
<path d="M114.159,85.761c5.407,0,9.815-4.379,9.815-9.786c0-5.407-4.408-9.786-9.815-9.786c-5.406,0-9.786,4.379-9.786,9.786
	C104.373,81.382,108.753,85.761,114.159,85.761"/>
<path fill="none" stroke="#000000" stroke-width="1.04" stroke-miterlimit="2.613" d="M114.159,85.761
	c5.407,0,9.815-4.379,9.815-9.786c0-5.407-4.408-9.786-9.815-9.786c-5.406,0-9.786,4.379-9.786,9.786
	C104.373,81.382,108.753,85.761,114.159,85.761z"/>
<path fill="#FFFFFF" d="M114.159,79.872c-2.145,0-3.867-1.721-3.867-3.897c0-2.144,1.722-3.865,3.867-3.865
	c2.174,0,3.896,1.721,3.896,3.865C118.056,78.151,116.333,79.872,114.159,79.872"/>
<path fill="#8ED8F8" d="M114.159,79.872c-2.145,0-3.867-1.721-3.867-3.897c0-2.144,1.722-3.865,3.867-3.865
	c2.174,0,3.896,1.721,3.896,3.865C118.056,78.151,116.333,79.872,114.159,79.872"/>
<path fill="none" stroke="#000000" stroke-width="0.364" stroke-miterlimit="2.613" d="M114.159,79.872
	c-2.145,0-3.867-1.721-3.867-3.897c0-2.144,1.722-3.865,3.867-3.865c2.174,0,3.896,1.721,3.896,3.865
	C118.056,78.151,116.333,79.872,114.159,79.872z"/>
<path d="M90.235,90.353v5.015c5.222-0.729,17.321,1.72,23.672,5.586c6.325-3.866,18.452-6.315,23.673-5.586v-5.015H90.235"/>
<path fill="none" stroke="#000000" stroke-width="0.348" stroke-linecap="round" stroke-linejoin="round" stroke-miterlimit="2.613" d="
	M90.235,90.353v5.015c5.222-0.729,17.321,1.72,23.672,5.586c6.325-3.866,18.452-6.315,23.673-5.586v-5.015H90.235z"/>
<path fill="#FFFFFF" d="M114.068,96.273c0.694,0,1.237-0.545,1.237-1.21c0-0.695-0.543-1.237-1.237-1.237
	c-0.664,0-1.208,0.542-1.208,1.237C112.86,95.728,113.405,96.273,114.068,96.273"/>
<path fill="none" stroke="#000000" stroke-width="0.728" stroke-linecap="round" stroke-linejoin="round" stroke-miterlimit="2.613" d="
	M114.068,96.273c0.694,0,1.237-0.545,1.237-1.21c0-0.695-0.543-1.237-1.237-1.237c-0.664,0-1.208,0.542-1.208,1.237
	C112.86,95.728,113.405,96.273,114.068,96.273z"/>
<path fill="#FFF200" d="M99.708,102.333c2.264-1.841,1.973-2.457,1.455-3.039c-0.483-0.582-1.064-0.872-3.233,0.939
	c-1.973,1.616-1.973,2.426-1.454,3.007C96.959,103.822,97.802,103.854,99.708,102.333"/>
<path fill="none" stroke="#000000" stroke-width="0.386" d="M99.708,102.333c2.264-1.841,1.973-2.457,1.455-3.039
	c-0.483-0.582-1.064-0.872-3.233,0.939c-1.973,1.616-1.973,2.426-1.454,3.007C96.959,103.822,97.802,103.854,99.708,102.333z"/>
<path fill="#FFF200" d="M99.643,105.6c1.94-2.201,1.52-2.747,0.938-3.232c-0.581-0.486-1.229-0.679-3.04,1.486
	c-1.649,1.94-1.521,2.748-0.936,3.234C97.187,107.573,98.026,107.444,99.643,105.6"/>
<path fill="none" stroke="#000000" stroke-width="0.386" d="M99.643,105.6c1.94-2.201,1.52-2.747,0.938-3.232
	c-0.581-0.486-1.229-0.679-3.04,1.486c-1.649,1.94-1.521,2.748-0.936,3.234C97.187,107.573,98.026,107.444,99.643,105.6z"/>
<path fill="#FFF200" d="M100.484,108.157c1.52-2.492,1.036-2.977,0.357-3.365c-0.649-0.354-1.295-0.452-2.718,1.973
	c-1.293,2.23-1.002,2.975-0.355,3.362C98.414,110.516,99.224,110.225,100.484,108.157"/>
<path fill="none" stroke="#000000" stroke-width="0.386" d="M100.484,108.157c1.52-2.492,1.036-2.977,0.357-3.365
	c-0.649-0.354-1.295-0.452-2.718,1.973c-1.293,2.23-1.002,2.975-0.355,3.362C98.414,110.516,99.224,110.225,100.484,108.157z"/>
<path fill="#FFF200" d="M102.135,109.869c1.067-2.716,0.484-3.104-0.261-3.364c-0.711-0.259-1.357-0.193-2.328,2.425
	c-0.904,2.395-0.485,3.105,0.227,3.365C100.484,112.553,101.228,112.164,102.135,109.869"/>
<path fill="none" stroke="#000000" stroke-width="0.386" d="M102.135,109.869c1.067-2.716,0.484-3.104-0.261-3.364
	c-0.711-0.259-1.357-0.193-2.328,2.425c-0.904,2.395-0.485,3.105,0.227,3.365C100.484,112.553,101.228,112.164,102.135,109.869z"/>
<path fill="#FFF200" d="M103.891,111.222c0.542-2.687-0.06-2.928-0.756-3.05c-0.694-0.15-1.301,0-1.782,2.597
	c-0.424,2.356,0.09,2.931,0.784,3.052C102.831,113.941,103.437,113.458,103.891,111.222"/>
<path fill="none" stroke="#000000" stroke-width="0.361" d="M103.891,111.222c0.542-2.687-0.06-2.928-0.756-3.05
	c-0.694-0.15-1.301,0-1.782,2.597c-0.424,2.356,0.09,2.931,0.784,3.052C102.831,113.941,103.437,113.458,103.891,111.222z"/>
<path fill="#FFF200" d="M105.972,111.859c0.061-2.718-0.574-2.872-1.297-2.872c-0.695,0-1.269,0.241-1.269,2.872
	c-0.03,2.384,0.574,2.867,1.269,2.867C105.398,114.726,105.913,114.122,105.972,111.859"/>
<path fill="none" stroke="#000000" stroke-width="0.361" d="M105.972,111.859c0.061-2.718-0.574-2.872-1.297-2.872
	c-0.695,0-1.269,0.241-1.269,2.872c-0.03,2.384,0.574,2.867,1.269,2.867C105.398,114.726,105.913,114.122,105.972,111.859z"/>
<path fill="#FFF200" d="M108.149,112.039c-0.423-2.718-1.057-2.748-1.752-2.627c-0.725,0.12-1.24,0.452-0.785,3.05
	c0.394,2.356,1.057,2.75,1.782,2.629C108.089,114.968,108.481,114.274,108.149,112.039"/>
<path fill="none" stroke="#000000" stroke-width="0.361" d="M108.149,112.039c-0.423-2.718-1.057-2.748-1.752-2.627
	c-0.725,0.12-1.24,0.452-0.785,3.05c0.394,2.356,1.057,2.75,1.782,2.629C108.089,114.968,108.481,114.274,108.149,112.039z"/>
<path fill="#FFF200" d="M110.355,111.919c-0.637-2.628-1.301-2.628-1.996-2.447c-0.663,0.18-1.146,0.574-0.482,3.111
	c0.603,2.326,1.298,2.628,1.992,2.445C110.534,114.848,110.897,114.153,110.355,111.919"/>
<path fill="none" stroke="#000000" stroke-width="0.361" d="M110.355,111.919c-0.637-2.628-1.301-2.628-1.996-2.447
	c-0.663,0.18-1.146,0.574-0.482,3.111c0.603,2.326,1.298,2.628,1.992,2.445C110.534,114.848,110.897,114.153,110.355,111.919z"/>
<path fill="#FFF200" d="M112.649,112.07c-0.635-2.628-1.298-2.628-1.993-2.448c-0.666,0.212-1.149,0.575-0.484,3.112
	c0.605,2.324,1.298,2.657,1.995,2.446C112.829,114.999,113.192,114.303,112.649,112.07"/>
<path fill="none" stroke="#000000" stroke-width="0.361" d="M112.649,112.07c-0.635-2.628-1.298-2.628-1.993-2.448
	c-0.666,0.212-1.149,0.575-0.484,3.112c0.605,2.324,1.298,2.657,1.995,2.446C112.829,114.999,113.192,114.303,112.649,112.07z"/>
<path fill="#FFF200" d="M114.883,112.221c-0.635-2.63-1.299-2.63-1.961-2.418c-0.695,0.181-1.18,0.545-0.515,3.112
	c0.604,2.296,1.299,2.628,1.994,2.416C115.096,115.148,115.428,114.456,114.883,112.221"/>
<path fill="none" stroke="#000000" stroke-width="0.361" d="M114.883,112.221c-0.635-2.63-1.299-2.63-1.961-2.418
	c-0.695,0.181-1.18,0.545-0.515,3.112c0.604,2.296,1.299,2.628,1.994,2.416C115.096,115.148,115.428,114.456,114.883,112.221z"/>
<path fill="#FFF200" d="M117.181,112.43c-0.635-2.656-1.301-2.627-1.965-2.447c-0.694,0.182-1.179,0.575-0.514,3.113
	c0.604,2.326,1.3,2.627,1.992,2.445C117.389,115.361,117.723,114.634,117.181,112.43"/>
<path fill="none" stroke="#000000" stroke-width="0.361" d="M117.181,112.43c-0.635-2.656-1.301-2.627-1.965-2.447
	c-0.694,0.182-1.179,0.575-0.514,3.113c0.604,2.326,1.3,2.627,1.992,2.445C117.389,115.361,117.723,114.634,117.181,112.43z"/>
<path fill="#FFF200" d="M119.535,112.854c-0.635-2.658-1.3-2.628-1.993-2.447c-0.694,0.182-1.148,0.574-0.482,3.111
	c0.604,2.296,1.298,2.629,1.963,2.446C119.717,115.784,120.08,115.058,119.535,112.854"/>
<path fill="none" stroke="#000000" stroke-width="0.361" d="M119.535,112.854c-0.635-2.658-1.3-2.628-1.993-2.447
	c-0.694,0.182-1.148,0.574-0.482,3.111c0.604,2.296,1.298,2.629,1.963,2.446C119.717,115.784,120.08,115.058,119.535,112.854z"/>
<path fill="#FFF200" d="M121.77,113.335c-0.392-2.716-1.057-2.746-1.753-2.626c-0.693,0.12-1.207,0.483-0.754,3.05
	c0.395,2.357,1.058,2.75,1.753,2.629C121.71,116.268,122.134,115.571,121.77,113.335"/>
<path fill="none" stroke="#000000" stroke-width="0.361" d="M121.77,113.335c-0.392-2.716-1.057-2.746-1.753-2.626
	c-0.693,0.12-1.207,0.483-0.754,3.05c0.395,2.357,1.058,2.75,1.753,2.629C121.71,116.268,122.134,115.571,121.77,113.335z"/>
<path fill="#FFF200" d="M124.096,114.848c-0.182-2.721-0.845-2.809-1.54-2.748c-0.725,0.059-1.236,0.362-1.026,2.991
	c0.181,2.354,0.814,2.808,1.51,2.747C123.764,117.778,124.217,117.113,124.096,114.848"/>
<path fill="none" stroke="#000000" stroke-width="0.361" d="M124.096,114.848c-0.182-2.721-0.845-2.809-1.54-2.748
	c-0.725,0.059-1.236,0.362-1.026,2.991c0.181,2.354,0.814,2.808,1.51,2.747C123.764,117.778,124.217,117.113,124.096,114.848z"/>
<path fill="#FFF200" d="M126.15,116.781c0.513-2.688-0.092-2.959-0.786-3.081c-0.695-0.12-1.299,0.03-1.752,2.627
	c-0.422,2.355,0.06,2.929,0.755,3.051C125.063,119.5,125.697,119.015,126.15,116.781"/>
<path fill="none" stroke="#000000" stroke-width="0.361" d="M126.15,116.781c0.513-2.688-0.092-2.959-0.786-3.081
	c-0.695-0.12-1.299,0.03-1.752,2.627c-0.422,2.355,0.06,2.929,0.755,3.051C125.063,119.5,125.697,119.015,126.15,116.781z"/>
<path fill="#FFF200" d="M127.298,119.165c1.42-2.354,0.938-2.776,0.331-3.138c-0.602-0.364-1.237-0.424-2.564,1.842
	c-1.181,2.053-0.938,2.776-0.306,3.14C125.364,121.371,126.12,121.101,127.298,119.165"/>
<path fill="none" stroke="#000000" stroke-width="0.361" d="M127.298,119.165c1.42-2.354,0.938-2.776,0.331-3.138
	c-0.602-0.364-1.237-0.424-2.564,1.842c-1.181,2.053-0.938,2.776-0.306,3.14C125.364,121.371,126.12,121.101,127.298,119.165z"/>
<path fill="#FFF200" d="M127.601,122.156c2.114-1.69,1.812-2.264,1.359-2.807c-0.452-0.574-0.997-0.847-3.021,0.843
	c-1.844,1.54-1.844,2.297-1.391,2.841C125.003,123.576,125.818,123.606,127.601,122.156"/>
<path fill="none" stroke="#000000" stroke-width="0.361" d="M127.601,122.156c2.114-1.69,1.812-2.264,1.359-2.807
	c-0.452-0.574-0.997-0.847-3.021,0.843c-1.844,1.54-1.844,2.297-1.391,2.841C125.003,123.576,125.818,123.606,127.601,122.156z"/>
<path fill="#FFF200" d="M126.784,125.268c2.566-0.877,2.507-1.542,2.264-2.205c-0.242-0.664-0.664-1.116-3.141-0.211
	c-2.265,0.813-2.507,1.51-2.265,2.175C123.884,125.72,124.609,125.993,126.784,125.268"/>
<path fill="none" stroke="#000000" stroke-width="0.361" d="M126.784,125.268c2.566-0.877,2.507-1.542,2.264-2.205
	c-0.242-0.664-0.664-1.116-3.141-0.211c-2.265,0.813-2.507,1.51-2.265,2.175C123.884,125.72,124.609,125.993,126.784,125.268z"/>
<path fill="#FFF200" d="M124.881,127.955c2.688-0.392,2.72-1.055,2.6-1.752c-0.123-0.692-0.453-1.207-3.052-0.783
	c-2.354,0.422-2.747,1.09-2.627,1.781C121.952,127.895,122.616,128.317,124.881,127.955"/>
<path fill="none" stroke="#000000" stroke-width="0.361" d="M124.881,127.955c2.688-0.392,2.72-1.055,2.6-1.752
	c-0.123-0.692-0.453-1.207-3.052-0.783c-2.354,0.422-2.747,1.09-2.627,1.781C121.952,127.895,122.616,128.317,124.881,127.955z"/>
<path fill="#FFF200" d="M122.195,130.009c2.716-0.181,2.838-0.814,2.747-1.539c-0.062-0.696-0.333-1.241-2.961-1.028
	c-2.387,0.212-2.81,0.845-2.747,1.542C119.293,129.676,119.929,130.159,122.195,130.009"/>
<path fill="none" stroke="#000000" stroke-width="0.361" d="M122.195,130.009c2.716-0.181,2.838-0.814,2.747-1.539
	c-0.062-0.696-0.333-1.241-2.961-1.028c-2.387,0.212-2.81,0.845-2.747,1.542C119.293,129.676,119.929,130.159,122.195,130.009z"/>
<path fill="#FFF200" d="M119.053,131.852c1.992-0.061,2.114-0.632,2.114-1.27c0-0.634-0.182-1.177-2.114-1.267V131.852"/>
<path fill="none" stroke="#000000" stroke-width="0.361" d="M119.053,131.852c1.992-0.061,2.114-0.632,2.114-1.27
	c0-0.634-0.182-1.177-2.114-1.267V131.852z"/>
<path fill="#FFF200" d="M103.316,136.837c2.717-0.181,2.809-0.848,2.749-1.542c-0.06-0.693-0.335-1.237-2.961-1.028
	c-2.385,0.183-2.839,0.815-2.748,1.542C100.416,136.503,101.051,136.987,103.316,136.837"/>
<path fill="none" stroke="#000000" stroke-width="0.361" d="M103.316,136.837c2.717-0.181,2.809-0.848,2.749-1.542
	c-0.06-0.693-0.335-1.237-2.961-1.028c-2.385,0.183-2.839,0.815-2.748,1.542C100.416,136.503,101.051,136.987,103.316,136.837z"/>
<path fill="#FFF200" d="M101.111,138.8c2.72-0.186,2.809-0.848,2.748-1.542c-0.061-0.726-0.363-1.238-2.96-1.027
	c-2.387,0.182-2.838,0.815-2.778,1.512C98.182,138.467,98.846,138.92,101.111,138.8"/>
<path fill="none" stroke="#000000" stroke-width="0.361" d="M101.111,138.8c2.72-0.186,2.809-0.848,2.748-1.542
	c-0.061-0.726-0.363-1.238-2.96-1.027c-2.387,0.182-2.838,0.815-2.778,1.512C98.182,138.467,98.846,138.92,101.111,138.8z"/>
<path fill="#FFF200" d="M99.481,141.307c2.657-0.665,2.627-1.298,2.447-1.995c-0.182-0.696-0.575-1.177-3.111-0.483
	c-2.326,0.605-2.63,1.297-2.45,1.962C96.551,141.487,97.276,141.848,99.481,141.307"/>
<path fill="none" stroke="#000000" stroke-width="0.361" d="M99.481,141.307c2.657-0.665,2.627-1.298,2.447-1.995
	c-0.182-0.696-0.575-1.177-3.111-0.483c-2.326,0.605-2.63,1.297-2.45,1.962C96.551,141.487,97.276,141.848,99.481,141.307z"/>
<path fill="#FFF200" d="M98.906,143.663c2.507-1.088,2.387-1.755,2.085-2.386c-0.304-0.635-0.757-1.059-3.173,0.06
	c-2.143,0.996-2.356,1.722-2.054,2.387C96.067,144.355,96.823,144.568,98.906,143.663"/>
<path fill="none" stroke="#000000" stroke-width="0.361" d="M98.906,143.663c2.507-1.088,2.387-1.755,2.085-2.386
	c-0.304-0.635-0.757-1.059-3.173,0.06c-2.143,0.996-2.356,1.722-2.054,2.387C96.067,144.355,96.823,144.568,98.906,143.663z"/>
<path fill="#FFF200" d="M99.118,146.078c2.267-1.51,2.022-2.112,1.602-2.688c-0.395-0.573-0.938-0.905-3.082,0.605
	c-1.962,1.358-2.024,2.115-1.632,2.688C96.431,147.258,97.215,147.345,99.118,146.078"/>
<path fill="none" stroke="#000000" stroke-width="0.361" d="M99.118,146.078c2.267-1.51,2.022-2.112,1.602-2.688
	c-0.395-0.573-0.938-0.905-3.082,0.605c-1.962,1.358-2.024,2.115-1.632,2.688C96.431,147.258,97.215,147.345,99.118,146.078z"/>
<path fill="#FFF200" d="M99.691,148.555c1.994-1.903,1.63-2.445,1.148-2.959c-0.515-0.516-1.088-0.728-2.961,1.116
	c-1.691,1.692-1.631,2.446-1.116,2.96C97.276,150.155,98.061,150.125,99.691,148.555"/>
<path fill="none" stroke="#000000" stroke-width="0.361" d="M99.691,148.555c1.994-1.903,1.63-2.445,1.148-2.959
	c-0.515-0.516-1.088-0.728-2.961,1.116c-1.691,1.692-1.631,2.446-1.116,2.96C97.276,150.155,98.061,150.125,99.691,148.555z"/>
<path fill="#FFF200" d="M100.929,150.458c1.6-2.205,1.179-2.689,0.575-3.112c-0.575-0.393-1.18-0.513-2.687,1.631
	c-1.392,1.934-1.18,2.688-0.606,3.084C98.785,152.48,99.57,152.269,100.929,150.458"/>
<path fill="none" stroke="#000000" stroke-width="0.361" d="M100.929,150.458c1.6-2.205,1.179-2.689,0.575-3.112
	c-0.575-0.393-1.18-0.513-2.687,1.631c-1.392,1.934-1.18,2.688-0.606,3.084C98.785,152.48,99.57,152.269,100.929,150.458z"/>
<path fill="#FFF200" d="M102.53,151.847c1.208-2.447,0.695-2.839,0.031-3.143c-0.633-0.301-1.239-0.331-2.386,2.054
	c-0.996,2.177-0.694,2.871-0.031,3.172C100.779,154.202,101.504,153.902,102.53,151.847"/>
<path fill="none" stroke="#000000" stroke-width="0.361" d="M102.53,151.847c1.208-2.447,0.695-2.839,0.031-3.143
	c-0.633-0.301-1.239-0.331-2.386,2.054c-0.996,2.177-0.694,2.871-0.031,3.172C100.779,154.202,101.504,153.902,102.53,151.847z"/>
<path fill="#FFF200" d="M104.433,152.935c0.756-2.6,0.18-2.9-0.513-3.113c-0.695-0.18-1.299-0.089-1.993,2.447
	c-0.606,2.326-0.181,2.931,0.514,3.113C103.135,155.592,103.798,155.139,104.433,152.935"/>
<path fill="none" stroke="#000000" stroke-width="0.361" d="M104.433,152.935c0.756-2.6,0.18-2.9-0.513-3.113
	c-0.695-0.18-1.299-0.089-1.993,2.447c-0.606,2.326-0.181,2.931,0.514,3.113C103.135,155.592,103.798,155.139,104.433,152.935z"/>
<path fill="#FFF200" d="M106.337,154.232c0.302-2.687-0.332-2.898-1.027-2.96c-0.725-0.058-1.3,0.12-1.541,2.749
	c-0.211,2.387,0.332,2.93,1.027,2.991C105.521,157.072,106.094,156.498,106.337,154.232"/>
<path fill="none" stroke="#000000" stroke-width="0.361" d="M106.337,154.232c0.302-2.687-0.332-2.898-1.027-2.96
	c-0.725-0.058-1.3,0.12-1.541,2.749c-0.211,2.387,0.332,2.93,1.027,2.991C105.521,157.072,106.094,156.498,106.337,154.232z"/>
<path fill="#FFF200" d="M118.718,77.727c0.453-0.03,0.635-0.302,0.816-0.606c0.364-0.604,0.423-1.237-1.841-2.565
	c-2.056-1.177-2.779-0.936-3.142-0.302c-0.243,0.392-0.213,0.845,0.393,1.45C117.089,75.853,118.266,76.761,118.718,77.727"/>
<path fill="none" stroke="#000000" stroke-width="0.361" d="M118.718,77.727c0.453-0.03,0.635-0.302,0.816-0.606
	c0.364-0.604,0.423-1.237-1.841-2.565c-2.056-1.177-2.779-0.936-3.142-0.302c-0.243,0.392-0.213,0.845,0.393,1.45
	C117.089,75.853,118.266,76.761,118.718,77.727z"/>
<path fill="#FFF200" d="M119.233,76.248c2.053,1.781,2.567,1.389,3.02,0.845c0.456-0.542,0.635-1.117-1.356-2.838
	c-1.844-1.542-2.601-1.389-3.053-0.846C117.389,73.95,117.511,74.738,119.233,76.248"/>
<path fill="none" stroke="#000000" stroke-width="0.361" d="M119.233,76.248c2.053,1.781,2.567,1.389,3.02,0.845
	c0.456-0.542,0.635-1.117-1.356-2.838c-1.844-1.542-2.601-1.389-3.053-0.846C117.389,73.95,117.511,74.738,119.233,76.248z"/>
<path fill="#FFF200" d="M122.013,76.428c1.72,2.114,2.292,1.845,2.837,1.39c0.544-0.482,0.815-1.027-0.847-3.051
	c-1.539-1.843-2.293-1.814-2.836-1.358C120.621,73.861,120.591,74.647,122.013,76.428"/>
<path fill="none" stroke="#000000" stroke-width="0.361" d="M122.013,76.428c1.72,2.114,2.292,1.845,2.837,1.39
	c0.544-0.482,0.815-1.027-0.847-3.051c-1.539-1.843-2.293-1.814-2.836-1.358C120.621,73.861,120.591,74.647,122.013,76.428z"/>
<path fill="#FFF200" d="M124.519,77.986c1.088,2.763,1.723,2.627,2.357,2.296c0.665-0.332,1.055-0.833-0.03-3.494
	c-0.998-2.36-1.752-2.596-2.387-2.264C123.825,74.858,123.584,75.69,124.519,77.986"/>
<path fill="none" stroke="#000000" stroke-width="0.379" d="M124.519,77.986c1.088,2.763,1.723,2.627,2.357,2.296
	c0.665-0.332,1.055-0.833-0.03-3.494c-0.998-2.36-1.752-2.596-2.387-2.264C123.825,74.858,123.584,75.69,124.519,77.986z"/>
<path fill="#FFF200" d="M126.996,79.815c0.394,2.996,1.056,3.03,1.75,2.895c0.695-0.133,1.209-0.532,0.788-3.393
	c-0.423-2.563-1.09-2.994-1.783-2.861C127.056,76.588,126.632,77.354,126.996,79.815"/>
<path fill="none" stroke="#000000" stroke-width="0.379" d="M126.996,79.815c0.394,2.996,1.056,3.03,1.75,2.895
	c0.695-0.133,1.209-0.532,0.788-3.393c-0.423-2.563-1.09-2.994-1.783-2.861C127.056,76.588,126.632,77.354,126.996,79.815z"/>
<path fill="#FFF200" d="M128.566,82.71c-0.784,2.895-0.213,3.229,0.481,3.427c0.695,0.199,1.3,0.1,1.997-2.694
	c0.633-2.531,0.179-3.229-0.515-3.429C129.865,79.815,129.2,80.315,128.566,82.71"/>
<path fill="none" stroke="#000000" stroke-width="0.379" d="M128.566,82.71c-0.784,2.895-0.213,3.229,0.481,3.427
	c0.695,0.199,1.3,0.1,1.997-2.694c0.633-2.531,0.179-3.229-0.515-3.429C129.865,79.815,129.2,80.315,128.566,82.71z"/>
<path fill="#FFF200" d="M129.079,86.171c-1.63,2.43-1.177,2.961-0.604,3.393c0.572,0.466,1.178,0.6,2.718-1.763
	c1.36-2.161,1.178-2.96,0.574-3.427C131.193,83.942,130.438,84.142,129.079,86.171"/>
<path fill="none" stroke="#000000" stroke-width="0.379" d="M129.079,86.171c-1.63,2.43-1.177,2.961-0.604,3.393
	c0.572,0.466,1.178,0.6,2.718-1.763c1.36-2.161,1.178-2.96,0.574-3.427C131.193,83.942,130.438,84.142,129.079,86.171z"/>
<path fill="#FFF200" d="M131.164,90.099c0.12-0.433,0-0.766-0.212-1.034c-0.453-0.598-1.238-0.598-3.021,0.965
	c-0.028,0-0.06,0.034-0.089,0.069H131.164"/>
<path fill="none" stroke="#000000" stroke-width="0.379" d="M131.164,90.099c0.12-0.433,0-0.766-0.212-1.034
	c-0.453-0.598-1.238-0.598-3.021,0.965c-0.028,0-0.06,0.034-0.089,0.069H131.164z"/>
<path fill="#FFFFFF" d="M194.905,166.24c-17.35,26.778-47.49,44.502-81.765,44.502c-32.86,0-61.918-16.292-79.55-41.23
	l36.428-26.678c9.407,13.747,25.212,22.772,43.122,22.772c19.887,0,37.178-11.125,45.997-27.488L194.905,166.24"/>
<path fill="none" stroke="#000000" stroke-width="0.54" stroke-miterlimit="10" d="M194.905,166.24
	c-17.35,26.778-47.49,44.502-81.765,44.502c-32.86,0-61.918-16.292-79.55-41.23l36.428-26.678
	c9.407,13.747,25.212,22.772,43.122,22.772c19.887,0,37.178-11.125,45.997-27.488L194.905,166.24z"/>
<path fill="#FFFFFF" d="M68.544,86.219L32.058,59.5c17.449-26.199,47.251-43.47,81.083-43.47c33.373,0,62.826,16.807,80.367,42.411
	l-35.626,28.015c-9.142-15.152-25.759-25.285-44.741-25.285C94.258,61.171,77.715,71.198,68.544,86.219"/>
<path fill="none" stroke="#000000" stroke-width="0.54" stroke-miterlimit="10" d="M68.544,86.219L32.058,59.5
	c17.449-26.199,47.251-43.47,81.083-43.47c33.373,0,62.826,16.807,80.367,42.411l-35.626,28.015
	c-9.142-15.152-25.759-25.285-44.741-25.285C94.258,61.171,77.715,71.198,68.544,86.219"/>
<path fill="#FFF200" d="M32.369,55.742c-1.002-1.273-2.648-1.763-4.359-0.296c-2.721,2.335-0.076,8.819,4.883,8.965
	c-0.957-1.34-1.164-2.897-0.563-4.576c0.503-1.409,0.574-2.662-0.02-4.099C32.33,55.738,32.349,55.741,32.369,55.742"/>
<path fill="none" stroke="#000000" stroke-width="0.721" stroke-miterlimit="2.613" d="M32.369,55.742
	c-1.002-1.273-2.648-1.763-4.359-0.296c-2.721,2.335-0.076,8.819,4.883,8.965c-0.957-1.34-1.164-2.897-0.563-4.576
	c0.503-1.409,0.574-2.662-0.02-4.099C32.33,55.738,32.349,55.741,32.369,55.742z"/>
<path fill="#FFF200" d="M35.949,58.595c-0.839-1.507-2.063-2.76-3.639-2.859c0.594,1.437,0.523,2.69,0.019,4.098
	c-1.187,3.316,0.78,6.148,5.422,7.788c-1.405-1.317-1.908-3.007-1.411-4.948c0.369-1.447,0.326-2.702-0.402-4.079H35.949"/>
<path fill="none" stroke="#000000" stroke-width="0.721" stroke-miterlimit="2.613" d="M35.949,58.595
	c-0.839-1.507-2.063-2.76-3.639-2.859c0.594,1.437,0.523,2.69,0.019,4.098c-1.187,3.316,0.78,6.148,5.422,7.788
	c-1.405-1.317-1.908-3.007-1.411-4.948c0.369-1.447,0.326-2.702-0.402-4.079H35.949z"/>
<path fill="#FFF200" d="M40.557,62.343c-0.978-1.938-2.601-3.807-4.619-3.747c0.727,1.376,0.771,2.632,0.401,4.078
	c-0.785,3.066,0.927,5.507,4.75,6.843c-0.602-1.072-0.745-2.31-0.397-3.67C41.011,64.602,41.024,63.501,40.557,62.343"/>
<path fill="none" stroke="#000000" stroke-width="0.721" stroke-miterlimit="2.613" d="M40.557,62.343
	c-0.978-1.938-2.601-3.807-4.619-3.747c0.727,1.376,0.771,2.632,0.401,4.078c-0.785,3.066,0.927,5.507,4.75,6.843
	c-0.602-1.072-0.745-2.31-0.397-3.67C41.011,64.602,41.024,63.501,40.557,62.343z"/>
<path fill="#FFF200" d="M45.019,65.732c-0.964-2.009-2.634-4.027-4.727-3.964c0.725,1.378,0.772,2.632,0.4,4.079
	c-0.791,3.085,0.95,5.538,4.824,6.869c-0.677-1.11-0.855-2.402-0.489-3.828C45.314,67.768,45.353,66.766,45.019,65.732"/>
<path fill="none" stroke="#000000" stroke-width="0.721" stroke-miterlimit="2.613" d="M45.019,65.732
	c-0.964-2.009-2.634-4.027-4.727-3.964c0.725,1.378,0.772,2.632,0.4,4.079c-0.791,3.085,0.95,5.538,4.824,6.869
	c-0.677-1.11-0.855-2.402-0.489-3.828C45.314,67.768,45.353,66.766,45.019,65.732z"/>
<path fill="#FFF200" d="M49.353,68.773c-0.964-2.011-2.633-4.026-4.728-3.966c0.729,1.379,0.774,2.634,0.403,4.08
	c-0.792,3.084,0.949,5.539,4.822,6.867c-0.677-1.107-0.854-2.399-0.487-3.827C49.649,70.81,49.686,69.807,49.353,68.773"/>
<path fill="none" stroke="#000000" stroke-width="0.721" stroke-miterlimit="2.613" d="M49.353,68.773
	c-0.964-2.011-2.633-4.026-4.728-3.966c0.729,1.379,0.774,2.634,0.403,4.08c-0.792,3.084,0.949,5.539,4.822,6.867
	c-0.677-1.107-0.854-2.399-0.487-3.827C49.649,70.81,49.686,69.807,49.353,68.773z"/>
<path fill="#FFF200" d="M53.688,71.814c-0.965-2.012-2.633-4.027-4.726-3.964c0.725,1.376,0.771,2.632,0.4,4.077
	c-0.79,3.086,0.951,5.539,4.823,6.867c-0.677-1.106-0.853-2.398-0.489-3.826C53.983,73.85,54.022,72.847,53.688,71.814"/>
<path fill="none" stroke="#000000" stroke-width="0.721" stroke-miterlimit="2.613" d="M53.688,71.814
	c-0.965-2.012-2.633-4.027-4.726-3.964c0.725,1.376,0.771,2.632,0.4,4.077c-0.79,3.086,0.951,5.539,4.823,6.867
	c-0.677-1.106-0.853-2.398-0.489-3.826C53.983,73.85,54.022,72.847,53.688,71.814z"/>
<path fill="#FFF200" d="M58.024,74.854c-0.966-2.011-2.634-4.028-4.727-3.964c0.726,1.379,0.77,2.631,0.4,4.079
	c-0.791,3.085,0.95,5.536,4.824,6.866c-0.679-1.107-0.855-2.399-0.49-3.825C58.317,76.891,58.356,75.889,58.024,74.854"/>
<path fill="none" stroke="#000000" stroke-width="0.721" stroke-miterlimit="2.613" d="M58.024,74.854
	c-0.966-2.011-2.634-4.028-4.727-3.964c0.726,1.379,0.77,2.631,0.4,4.079c-0.791,3.085,0.95,5.536,4.824,6.866
	c-0.679-1.107-0.855-2.399-0.49-3.825C58.317,76.891,58.356,75.889,58.024,74.854z"/>
<path fill="#FFF200" d="M62.359,77.895c-0.966-2.011-2.634-4.027-4.728-3.965c0.726,1.377,0.771,2.631,0.4,4.08
	c-0.79,3.085,0.951,5.537,4.824,6.866c-0.678-1.107-0.855-2.399-0.488-3.827C62.652,79.931,62.691,78.928,62.359,77.895"/>
<path fill="none" stroke="#000000" stroke-width="0.721" stroke-miterlimit="2.613" d="M62.359,77.895
	c-0.966-2.011-2.634-4.027-4.728-3.965c0.726,1.377,0.771,2.631,0.4,4.08c-0.79,3.085,0.951,5.537,4.824,6.866
	c-0.678-1.107-0.855-2.399-0.488-3.827C62.652,79.931,62.691,78.928,62.359,77.895z"/>
<path d="M71.111,89.619c1.34-0.622,1.396-1.476,1.264-3.282c-0.151-2.092-2.827-6.434-6.074-6.325
	c0.72,1.352,0.757,2.587,0.382,4.012C65.775,87.466,68.03,90.71,71.111,89.619"/>
<path fill="#FFF200" d="M71.111,89.619c1.34-0.622,1.396-1.476,1.264-3.282c-0.151-2.092-2.827-6.434-6.074-6.325
	c0.72,1.352,0.757,2.587,0.382,4.012C65.775,87.466,68.03,90.71,71.111,89.619"/>
<path fill="none" stroke="#000000" stroke-width="0.721" stroke-miterlimit="2.613" d="M71.111,89.619
	c1.34-0.622,1.396-1.476,1.264-3.282c-0.151-2.092-2.827-6.434-6.074-6.325c0.72,1.352,0.757,2.587,0.382,4.012
	C65.775,87.466,68.03,90.71,71.111,89.619z"/>
<path fill="#FFF200" d="M66.695,80.942c-0.964-2.013-2.634-4.033-4.73-3.971c0.725,1.377,0.772,2.631,0.402,4.079
	c-0.777,3.031,0.889,5.45,4.62,6.796c-0.518-1.055-0.673-2.423-0.304-3.822C66.972,82.93,67.017,81.95,66.695,80.942"/>
<path fill="none" stroke="#000000" stroke-width="0.721" stroke-miterlimit="2.613" d="M66.695,80.942
	c-0.964-2.013-2.634-4.033-4.73-3.971c0.725,1.377,0.772,2.631,0.402,4.079c-0.777,3.031,0.889,5.45,4.62,6.796
	c-0.518-1.055-0.673-2.423-0.304-3.822C66.972,82.93,67.017,81.95,66.695,80.942z"/>
<path fill="#FFF200" d="M185.623,44.919c0.883-1.37,2.485-2.017,4.337-0.709c2.947,2.082,0.91,8.823-4.042,9.439
	c0.831-1.432,0.891-3.009,0.132-4.635c-0.638-1.361-0.828-2.61-0.367-4.106C185.663,44.91,185.644,44.916,185.623,44.919"/>
<path fill="none" stroke="#000000" stroke-width="0.721" stroke-miterlimit="2.613" d="M185.623,44.919
	c0.883-1.37,2.485-2.017,4.337-0.709c2.947,2.082,0.91,8.823-4.042,9.439c0.831-1.432,0.891-3.009,0.132-4.635
	c-0.638-1.361-0.828-2.61-0.367-4.106C185.663,44.91,185.644,44.916,185.623,44.919z"/>
<path fill="#FFF200" d="M182.308,48.113c0.698-1.587,1.807-2.957,3.375-3.206c-0.46,1.496-0.27,2.745,0.368,4.107
	c1.5,3.207-0.201,6.228-4.695,8.311c1.281-1.453,1.627-3.194,0.947-5.09c-0.507-1.414-0.582-2.674,0.018-4.122H182.308"/>
<path fill="none" stroke="#000000" stroke-width="0.721" stroke-miterlimit="2.613" d="M182.308,48.113
	c0.698-1.587,1.807-2.957,3.375-3.206c-0.46,1.496-0.27,2.745,0.368,4.107c1.5,3.207-0.201,6.228-4.695,8.311
	c1.281-1.453,1.627-3.194,0.947-5.09c-0.507-1.414-0.582-2.674,0.018-4.122H182.308z"/>
<path fill="#FFF200" d="M178.045,52.301c0.797-2.03,2.247-4.057,4.274-4.188c-0.599,1.448-0.523,2.709-0.018,4.123
	c1.076,2.996-0.409,5.601-4.109,7.3c0.502-1.132,0.526-2.383,0.051-3.713C177.804,54.607,177.69,53.505,178.045,52.301"/>
<path fill="none" stroke="#000000" stroke-width="0.721" stroke-miterlimit="2.613" d="M178.045,52.301
	c0.797-2.03,2.247-4.057,4.274-4.188c-0.599,1.448-0.523,2.709-0.018,4.123c1.076,2.996-0.409,5.601-4.109,7.3
	c0.502-1.132,0.526-2.383,0.051-3.713C177.804,54.607,177.69,53.505,178.045,52.301z"/>
<path fill="#FFF200" d="M173.898,56.117c0.777-2.104,2.258-4.28,4.36-4.416c-0.598,1.449-0.524,2.707-0.017,4.123
	c1.083,3.016-0.431,5.635-4.183,7.333c0.574-1.174,0.631-2.485,0.13-3.878C173.795,58.185,173.663,57.184,173.898,56.117"/>
<path fill="none" stroke="#000000" stroke-width="0.721" stroke-miterlimit="2.613" d="M173.898,56.117
	c0.777-2.104,2.258-4.28,4.36-4.416c-0.598,1.449-0.524,2.707-0.017,4.123c1.083,3.016-0.431,5.635-4.183,7.333
	c0.574-1.174,0.631-2.485,0.13-3.878C173.795,58.185,173.663,57.184,173.898,56.117z"/>
<path fill="#FFF200" d="M169.846,59.572c0.777-2.106,2.257-4.281,4.36-4.417c-0.599,1.449-0.525,2.708-0.017,4.124
	c1.083,3.014-0.428,5.633-4.181,7.33c0.572-1.173,0.628-2.484,0.126-3.877C169.742,61.64,169.611,60.639,169.846,59.572"/>
<path fill="none" stroke="#000000" stroke-width="0.721" stroke-miterlimit="2.613" d="M169.846,59.572
	c0.777-2.106,2.257-4.281,4.36-4.417c-0.599,1.449-0.525,2.708-0.017,4.124c1.083,3.014-0.428,5.633-4.181,7.33
	c0.572-1.173,0.628-2.484,0.126-3.877C169.742,61.64,169.611,60.639,169.846,59.572z"/>
<path fill="#FFF200" d="M165.791,63.026c0.776-2.105,2.257-4.281,4.36-4.416c-0.598,1.446-0.524,2.706-0.018,4.122
	c1.083,3.014-0.428,5.633-4.181,7.332c0.574-1.173,0.63-2.483,0.128-3.879C165.689,65.091,165.556,64.093,165.791,63.026"/>
<path fill="none" stroke="#000000" stroke-width="0.721" stroke-miterlimit="2.613" d="M165.791,63.026
	c0.776-2.105,2.257-4.281,4.36-4.416c-0.598,1.446-0.524,2.706-0.018,4.122c1.083,3.014-0.428,5.633-4.181,7.332
	c0.574-1.173,0.63-2.483,0.128-3.879C165.689,65.091,165.556,64.093,165.791,63.026z"/>
<path fill="#FFF200" d="M161.736,66.48c0.779-2.105,2.259-4.283,4.36-4.417c-0.596,1.448-0.523,2.707-0.016,4.122
	c1.084,3.016-0.427,5.636-4.181,7.332c0.573-1.173,0.628-2.483,0.128-3.878C161.636,68.546,161.504,67.545,161.736,66.48"/>
<path fill="none" stroke="#000000" stroke-width="0.721" stroke-miterlimit="2.613" d="M161.736,66.48
	c0.779-2.105,2.259-4.283,4.36-4.417c-0.596,1.448-0.523,2.707-0.016,4.122c1.084,3.016-0.427,5.636-4.181,7.332
	c0.573-1.173,0.628-2.483,0.128-3.878C161.636,68.546,161.504,67.545,161.736,66.48z"/>
<path fill="#FFF200" d="M157.685,69.933c0.777-2.105,2.258-4.28,4.359-4.416c-0.597,1.448-0.522,2.706-0.016,4.122
	c1.082,3.015-0.429,5.636-4.183,7.332c0.575-1.173,0.629-2.483,0.129-3.877C157.583,72,157.449,71,157.685,69.933"/>
<path fill="none" stroke="#000000" stroke-width="0.721" stroke-miterlimit="2.613" d="M157.685,69.933
	c0.777-2.105,2.258-4.28,4.359-4.416c-0.597,1.448-0.522,2.706-0.016,4.122c1.082,3.015-0.429,5.636-4.183,7.332
	c0.575-1.173,0.629-2.483,0.129-3.877C157.583,72,157.449,71,157.685,69.933z"/>
<path fill="#FFF200" d="M150.029,82.5c-1.401-0.497-1.539-1.347-1.578-3.167c-0.044-2.107,2.224-6.711,5.487-6.908
	c-0.595,1.423-0.517,2.663-0.005,4.056C155.167,79.84,153.213,83.301,150.029,82.5"/>
<path fill="none" stroke="#000000" stroke-width="0.721" stroke-miterlimit="2.613" d="M150.029,82.5
	c-1.401-0.497-1.539-1.347-1.578-3.167c-0.044-2.107,2.224-6.711,5.487-6.908c-0.595,1.423-0.517,2.663-0.005,4.056
	C155.167,79.84,153.213,83.301,150.029,82.5z"/>
<path fill="#FFF200" d="M153.629,73.393c0.777-2.105,2.258-4.287,4.362-4.423c-0.597,1.449-0.524,2.709-0.017,4.124
	c1.063,2.962-0.376,5.543-3.985,7.242c0.421-1.107,0.444-2.489-0.058-3.854C153.54,75.412,153.402,74.434,153.629,73.393"/>
<path fill="none" stroke="#000000" stroke-width="0.721" stroke-miterlimit="2.613" d="M153.629,73.393
	c0.777-2.105,2.258-4.287,4.362-4.423c-0.597,1.449-0.524,2.709-0.017,4.124c1.063,2.962-0.376,5.543-3.985,7.242
	c0.421-1.107,0.444-2.489-0.058-3.854C153.54,75.412,153.402,74.434,153.629,73.393z"/>
<path fill="#FFF200" d="M193.567,54.153c0.958-1.306,2.586-1.85,4.344-0.442c2.8,2.241,0.376,8.811-4.575,9.124
	c0.908-1.371,1.065-2.934,0.407-4.593c-0.55-1.388-0.665-2.638-0.119-4.097C193.605,54.148,193.586,54.151,193.567,54.153"/>
<path fill="#FFF200" d="M193.567,54.153c0.958-1.306,2.586-1.85,4.344-0.442c2.8,2.241,0.376,8.811-4.575,9.124
	c0.908-1.371,1.065-2.934,0.407-4.593c-0.55-1.388-0.665-2.638-0.119-4.097C193.605,54.148,193.586,54.151,193.567,54.153"/>
<path fill="none" stroke="#000000" stroke-width="0.721" stroke-miterlimit="2.613" d="M193.567,54.153
	c0.958-1.306,2.586-1.85,4.344-0.442c2.8,2.241,0.376,8.811-4.575,9.124c0.908-1.371,1.065-2.934,0.407-4.593
	c-0.55-1.388-0.665-2.638-0.119-4.097C193.605,54.148,193.586,54.151,193.567,54.153z"/>
<path fill="#FFF200" d="M190.084,57.126c0.789-1.534,1.97-2.828,3.541-2.982c-0.546,1.459-0.432,2.709,0.118,4.097
	c1.298,3.274-0.57,6.171-5.157,7.968c1.361-1.365,1.808-3.07,1.245-4.994c-0.417-1.434-0.416-2.688,0.265-4.09L190.084,57.126"/>
<path fill="none" stroke="#000000" stroke-width="0.721" stroke-miterlimit="2.613" d="M190.084,57.126
	c0.789-1.534,1.97-2.828,3.541-2.982c-0.546,1.459-0.432,2.709,0.118,4.097c1.298,3.274-0.57,6.171-5.157,7.968
	c1.361-1.365,1.808-3.07,1.245-4.994c-0.417-1.434-0.416-2.688,0.265-4.09L190.084,57.126z"/>
<path fill="#FFF200" d="M185.604,61.025c0.914-1.968,2.475-3.893,4.492-3.9c-0.681,1.402-0.682,2.657-0.265,4.091
	c0.888,3.037-0.741,5.534-4.515,6.998c0.563-1.091,0.666-2.334,0.271-3.68C185.229,63.299,185.178,62.2,185.604,61.025"/>
<path fill="none" stroke="#000000" stroke-width="0.721" stroke-miterlimit="2.613" d="M185.604,61.025
	c0.914-1.968,2.475-3.893,4.492-3.9c-0.681,1.402-0.682,2.657-0.265,4.091c0.888,3.037-0.741,5.534-4.515,6.998
	c0.563-1.091,0.666-2.334,0.271-3.68C185.229,63.299,185.178,62.2,185.604,61.025z"/>
<path fill="#FFF200" d="M181.261,64.564c0.896-2.041,2.494-4.113,4.589-4.12c-0.679,1.401-0.68,2.655-0.262,4.089
	c0.895,3.057-0.763,5.566-4.589,7.025c0.64-1.13,0.772-2.426,0.359-3.842C181.034,66.608,180.962,65.609,181.261,64.564"/>
<path fill="none" stroke="#000000" stroke-width="0.721" stroke-miterlimit="2.613" d="M181.261,64.564
	c0.896-2.041,2.494-4.113,4.589-4.12c-0.679,1.401-0.68,2.655-0.262,4.089c0.895,3.057-0.763,5.566-4.589,7.025
	c0.64-1.13,0.772-2.426,0.359-3.842C181.034,66.608,180.962,65.609,181.261,64.564z"/>
<path fill="#FFF200" d="M177.029,67.75c0.896-2.042,2.497-4.115,4.59-4.122c-0.678,1.401-0.68,2.656-0.262,4.089
	c0.896,3.058-0.764,5.569-4.588,7.028c0.639-1.131,0.772-2.428,0.359-3.843C176.804,69.794,176.732,68.794,177.029,67.75"/>
<path fill="none" stroke="#000000" stroke-width="0.721" stroke-miterlimit="2.613" d="M177.029,67.75
	c0.896-2.042,2.497-4.115,4.59-4.122c-0.678,1.401-0.68,2.656-0.262,4.089c0.896,3.058-0.764,5.569-4.588,7.028
	c0.639-1.131,0.772-2.428,0.359-3.843C176.804,69.794,176.732,68.794,177.029,67.75z"/>
<path fill="#FFF200" d="M172.802,70.933c0.896-2.041,2.494-4.112,4.589-4.121c-0.679,1.403-0.681,2.656-0.262,4.09
	c0.894,3.058-0.764,5.567-4.589,7.026c0.639-1.131,0.771-2.427,0.359-3.843C172.575,72.978,172.501,71.979,172.802,70.933"/>
<path fill="none" stroke="#000000" stroke-width="0.721" stroke-miterlimit="2.613" d="M172.802,70.933
	c0.896-2.041,2.494-4.112,4.589-4.121c-0.679,1.403-0.681,2.656-0.262,4.09c0.894,3.058-0.763,5.567-4.589,7.026
	c0.639-1.131,0.771-2.427,0.359-3.843C172.575,72.978,172.501,71.979,172.802,70.933z"/>
<path fill="#FFF200" d="M168.57,74.12c0.896-2.042,2.498-4.113,4.592-4.121c-0.681,1.4-0.684,2.655-0.264,4.087
	c0.895,3.058-0.764,5.568-4.591,7.028c0.641-1.132,0.774-2.427,0.359-3.842C168.343,76.164,168.272,75.163,168.57,74.12"/>
<path fill="none" stroke="#000000" stroke-width="0.721" stroke-miterlimit="2.613" d="M168.57,74.12
	c0.896-2.042,2.498-4.113,4.592-4.121c-0.681,1.4-0.684,2.655-0.264,4.087c0.895,3.058-0.764,5.568-4.591,7.028
	c0.641-1.132,0.774-2.427,0.359-3.842C168.343,76.164,168.272,75.163,168.57,74.12z"/>
<path fill="#FFF200" d="M164.34,77.305c0.897-2.044,2.496-4.116,4.592-4.122c-0.681,1.399-0.683,2.656-0.265,4.089
	c0.896,3.057-0.762,5.567-4.588,7.026c0.64-1.131,0.771-2.427,0.358-3.841C164.115,79.349,164.042,78.347,164.34,77.305"/>
<path fill="none" stroke="#000000" stroke-width="0.721" stroke-miterlimit="2.613" d="M164.34,77.305
	c0.897-2.044,2.496-4.116,4.592-4.122c-0.681,1.399-0.683,2.656-0.265,4.089c0.896,3.057-0.762,5.567-4.588,7.026
	c0.64-1.131,0.771-2.427,0.358-3.841C164.115,79.349,164.042,78.347,164.34,77.305z"/>
<path fill="#FFF200" d="M155.988,89.316c-1.36-0.576-1.445-1.429-1.375-3.238c0.082-2.092,2.608-6.526,5.858-6.526
	c-0.673,1.377-0.673,2.61-0.249,4.024C161.246,86.984,159.101,90.303,155.988,89.316"/>
<path fill="none" stroke="#000000" stroke-width="0.721" stroke-miterlimit="2.613" d="M155.988,89.316
	c-1.36-0.576-1.445-1.429-1.375-3.238c0.082-2.092,2.608-6.526,5.858-6.526c-0.673,1.377-0.673,2.61-0.249,4.024
	C161.246,86.984,159.101,90.303,155.988,89.316z"/>
<path fill="#FFF200" d="M160.106,80.494c0.897-2.043,2.499-4.119,4.595-4.128c-0.679,1.401-0.682,2.657-0.264,4.092
	c0.879,3.001-0.705,5.476-4.39,6.946c0.484-1.071,0.593-2.443,0.175-3.828C159.899,82.492,159.822,81.513,160.106,80.494"/>
<path fill="none" stroke="#000000" stroke-width="0.721" stroke-miterlimit="2.613" d="M160.106,80.494
	c0.897-2.043,2.499-4.119,4.595-4.128c-0.679,1.401-0.682,2.657-0.264,4.092c0.879,3.001-0.705,5.476-4.39,6.946
	c0.484-1.071,0.593-2.443,0.175-3.828C159.899,82.492,159.822,81.513,160.106,80.494z"/>
<path fill="#FFF200" d="M41.555,181.777c-0.883,1.37-2.485,2.014-4.336,0.706c-2.946-2.078-0.91-8.824,4.043-9.436
	c-0.833,1.429-0.894,3.009-0.133,4.635c0.638,1.358,0.826,2.607,0.369,4.104C41.516,181.784,41.534,181.78,41.555,181.777"/>
<path fill="none" stroke="#000000" stroke-width="0.721" stroke-miterlimit="2.613" d="M41.555,181.777
	c-0.883,1.37-2.485,2.014-4.336,0.706c-2.946-2.078-0.91-8.824,4.043-9.436c-0.833,1.429-0.894,3.009-0.133,4.635
	c0.638,1.358,0.826,2.607,0.369,4.104C41.516,181.784,41.534,181.78,41.555,181.777z"/>
<path fill="#FFF200" d="M44.873,178.579c-0.699,1.588-1.809,2.959-3.376,3.207c0.458-1.496,0.269-2.746-0.368-4.104
	c-1.501-3.208,0.199-6.23,4.695-8.312c-1.283,1.451-1.628,3.193-0.947,5.09c0.507,1.413,0.581,2.673-0.017,4.121L44.873,178.579"/>
<path fill="none" stroke="#000000" stroke-width="0.721" stroke-miterlimit="2.613" d="M44.873,178.579
	c-0.699,1.588-1.809,2.959-3.376,3.207c0.458-1.496,0.269-2.746-0.368-4.104c-1.501-3.208,0.199-6.23,4.695-8.312
	c-1.283,1.451-1.628,3.193-0.947,5.09c0.507,1.413,0.581,2.673-0.017,4.121L44.873,178.579z"/>
<path fill="#FFF200" d="M49.133,174.393c-0.798,2.032-2.247,4.058-4.274,4.188c0.599-1.448,0.525-2.708,0.018-4.121
	c-1.076-2.996,0.41-5.603,4.109-7.302c-0.5,1.132-0.527,2.385-0.051,3.713C49.373,172.087,49.49,173.189,49.133,174.393"/>
<path fill="none" stroke="#000000" stroke-width="0.721" stroke-miterlimit="2.613" d="M49.133,174.393
	c-0.798,2.032-2.247,4.058-4.274,4.188c0.599-1.448,0.525-2.708,0.018-4.121c-1.076-2.996,0.41-5.603,4.109-7.302
	c-0.5,1.132-0.527,2.385-0.051,3.713C49.373,172.087,49.49,173.189,49.133,174.393z"/>
<path fill="#FFF200" d="M53.28,170.574c-0.775,2.108-2.257,4.283-4.36,4.418c0.597-1.446,0.524-2.706,0.015-4.12
	c-1.081-3.016,0.43-5.636,4.182-7.333c-0.573,1.174-0.628,2.483-0.128,3.878C53.382,168.512,53.516,169.511,53.28,170.574"/>
<path fill="none" stroke="#000000" stroke-width="0.721" stroke-miterlimit="2.613" d="M53.28,170.574
	c-0.775,2.108-2.257,4.283-4.36,4.418c0.597-1.446,0.524-2.706,0.015-4.12c-1.081-3.016,0.43-5.636,4.182-7.333
	c-0.573,1.174-0.628,2.483-0.128,3.878C53.382,168.512,53.516,169.511,53.28,170.574z"/>
<path fill="#FFF200" d="M57.335,167.122c-0.778,2.106-2.259,4.282-4.361,4.419c0.596-1.449,0.524-2.709,0.015-4.124
	c-1.083-3.014,0.428-5.634,4.182-7.331c-0.573,1.174-0.628,2.484-0.128,3.878C57.435,165.056,57.57,166.056,57.335,167.122"/>
<path fill="none" stroke="#000000" stroke-width="0.721" stroke-miterlimit="2.613" d="M57.335,167.122
	c-0.778,2.106-2.259,4.282-4.361,4.419c0.596-1.449,0.524-2.709,0.015-4.124c-1.083-3.014,0.428-5.634,4.182-7.331
	c-0.573,1.174-0.628,2.484-0.128,3.878C57.435,165.056,57.57,166.056,57.335,167.122z"/>
<path fill="#FFF200" d="M61.388,163.667c-0.777,2.105-2.259,4.282-4.36,4.417c0.597-1.446,0.523-2.708,0.015-4.121
	c-1.081-3.016,0.43-5.635,4.181-7.332c-0.573,1.174-0.628,2.482-0.127,3.879C61.489,161.602,61.623,162.603,61.388,163.667"/>
<path fill="none" stroke="#000000" stroke-width="0.721" stroke-miterlimit="2.613" d="M61.388,163.667
	c-0.777,2.105-2.259,4.282-4.36,4.417c0.597-1.446,0.523-2.708,0.015-4.121c-1.081-3.016,0.43-5.635,4.181-7.332
	c-0.573,1.174-0.628,2.482-0.127,3.879C61.489,161.602,61.623,162.603,61.388,163.667z"/>
<path fill="#FFF200" d="M65.442,160.214c-0.778,2.105-2.258,4.282-4.36,4.417c0.596-1.449,0.523-2.707,0.015-4.122
	c-1.082-3.016,0.429-5.638,4.183-7.331c-0.575,1.173-0.63,2.483-0.129,3.878C65.543,158.148,65.677,159.148,65.442,160.214"/>
<path fill="none" stroke="#000000" stroke-width="0.721" stroke-miterlimit="2.613" d="M65.442,160.214
	c-0.778,2.105-2.258,4.282-4.36,4.417c0.596-1.449,0.523-2.707,0.015-4.122c-1.082-3.016,0.429-5.638,4.183-7.331
	c-0.575,1.173-0.63,2.483-0.129,3.878C65.543,158.148,65.677,159.148,65.442,160.214z"/>
<path fill="#FFF200" d="M69.495,156.761c-0.777,2.103-2.257,4.28-4.36,4.416c0.599-1.448,0.523-2.706,0.017-4.121
	c-1.083-3.016,0.428-5.636,4.18-7.332c-0.573,1.173-0.627,2.481-0.128,3.877C69.597,154.693,69.73,155.696,69.495,156.761"/>
<path fill="none" stroke="#000000" stroke-width="0.721" stroke-miterlimit="2.613" d="M69.495,156.761
	c-0.777,2.103-2.257,4.28-4.36,4.416c0.599-1.448,0.523-2.706,0.017-4.121c-1.083-3.016,0.428-5.636,4.18-7.332
	c-0.573,1.173-0.627,2.481-0.128,3.877C69.597,154.693,69.73,155.696,69.495,156.761z"/>
<path fill="#FFF200" d="M77.152,144.195c1.399,0.495,1.536,1.346,1.577,3.166c0.044,2.109-2.226,6.713-5.486,6.908
	c0.592-1.421,0.515-2.661,0.004-4.055C72.013,146.854,73.965,143.396,77.152,144.195"/>
<path fill="none" stroke="#000000" stroke-width="0.721" stroke-miterlimit="2.613" d="M77.152,144.195
	c1.399,0.495,1.536,1.346,1.577,3.166c0.044,2.109-2.226,6.713-5.486,6.908c0.592-1.421,0.515-2.661,0.004-4.055
	C72.013,146.854,73.965,143.396,77.152,144.195z"/>
<path fill="#FFF200" d="M73.551,153.301c-0.778,2.104-2.259,4.288-4.362,4.423c0.596-1.449,0.524-2.708,0.015-4.123
	c-1.063-2.962,0.377-5.543,3.987-7.242c-0.421,1.108-0.446,2.489,0.056,3.855C73.639,151.283,73.776,152.261,73.551,153.301"/>
<path fill="none" stroke="#000000" stroke-width="0.721" stroke-miterlimit="2.613" d="M73.551,153.301
	c-0.778,2.104-2.259,4.288-4.362,4.423c0.596-1.449,0.524-2.708,0.015-4.123c-1.063-2.962,0.377-5.543,3.987-7.242
	c-0.421,1.108-0.446,2.489,0.056,3.855C73.639,151.283,73.776,152.261,73.551,153.301z"/>
<path fill="#FFF200" d="M33.611,172.543c-0.957,1.305-2.586,1.849-4.343,0.44c-2.799-2.241-0.376-8.811,4.575-9.125
	c-0.909,1.372-1.065,2.935-0.408,4.593c0.551,1.391,0.665,2.642,0.119,4.1C33.572,172.546,33.592,172.543,33.611,172.543"/>
<path fill="none" stroke="#000000" stroke-width="0.721" stroke-miterlimit="2.613" d="M33.611,172.543
	c-0.957,1.305-2.586,1.849-4.343,0.44c-2.799-2.241-0.376-8.811,4.575-9.125c-0.909,1.372-1.065,2.935-0.408,4.593
	c0.551,1.391,0.665,2.642,0.119,4.1C33.572,172.546,33.592,172.543,33.611,172.543z"/>
<path fill="#FFF200" d="M37.094,169.569c-0.787,1.534-1.969,2.826-3.54,2.982c0.545-1.458,0.432-2.709-0.119-4.1
	c-1.298-3.272,0.572-6.172,5.158-7.966c-1.361,1.365-1.807,3.07-1.247,4.992c0.42,1.437,0.419,2.69-0.262,4.091H37.094"/>
<path fill="none" stroke="#000000" stroke-width="0.721" stroke-miterlimit="2.613" d="M37.094,169.569
	c-0.787,1.534-1.969,2.826-3.54,2.982c0.545-1.458,0.432-2.709-0.119-4.1c-1.298-3.272,0.572-6.172,5.158-7.966
	c-1.361,1.365-1.807,3.07-1.247,4.992c0.42,1.437,0.419,2.69-0.262,4.091H37.094z"/>
<path fill="#FFF200" d="M41.576,165.672c-0.913,1.966-2.474,3.889-4.491,3.896c0.68-1.4,0.682-2.654,0.262-4.091
	c-0.887-3.037,0.743-5.534,4.517-6.996c-0.563,1.091-0.665,2.332-0.273,3.681C41.951,163.394,42.001,164.495,41.576,165.672"/>
<path fill="none" stroke="#000000" stroke-width="0.721" stroke-miterlimit="2.613" d="M41.576,165.672
	c-0.913,1.966-2.474,3.889-4.491,3.896c0.68-1.4,0.682-2.654,0.262-4.091c-0.887-3.037,0.743-5.534,4.517-6.996
	c-0.563,1.091-0.665,2.332-0.273,3.681C41.951,163.394,42.001,164.495,41.576,165.672z"/>
<path fill="#FFF200" d="M45.92,162.131c-0.897,2.041-2.498,4.11-4.592,4.118c0.679-1.399,0.682-2.654,0.262-4.088
	c-0.893-3.057,0.764-5.567,4.591-7.025c-0.64,1.13-0.773,2.425-0.36,3.839C46.144,160.083,46.218,161.085,45.92,162.131"/>
<path fill="none" stroke="#000000" stroke-width="0.721" stroke-miterlimit="2.613" d="M45.92,162.131
	c-0.897,2.041-2.498,4.11-4.592,4.118c0.679-1.399,0.682-2.654,0.262-4.088c-0.893-3.057,0.764-5.567,4.591-7.025
	c-0.64,1.13-0.773,2.425-0.36,3.839C46.144,160.083,46.218,161.085,45.92,162.131z"/>
<path fill="#FFF200" d="M50.149,158.946c-0.898,2.043-2.498,4.113-4.592,4.121c0.68-1.4,0.683-2.657,0.264-4.091
	c-0.895-3.057,0.764-5.567,4.59-7.025c-0.64,1.129-0.774,2.427-0.36,3.841C50.374,156.901,50.447,157.9,50.149,158.946"/>
<path fill="none" stroke="#000000" stroke-width="0.721" stroke-miterlimit="2.613" d="M50.149,158.946
	c-0.898,2.043-2.498,4.113-4.592,4.121c0.68-1.4,0.683-2.657,0.264-4.091c-0.895-3.057,0.764-5.567,4.59-7.025
	c-0.64,1.129-0.774,2.427-0.36,3.841C50.374,156.901,50.447,157.9,50.149,158.946z"/>
<path fill="#FFF200" d="M54.381,155.762c-0.899,2.04-2.498,4.112-4.592,4.12c0.68-1.401,0.683-2.656,0.262-4.091
	c-0.894-3.058,0.764-5.564,4.589-7.026c-0.64,1.131-0.771,2.428-0.359,3.84C54.605,153.714,54.677,154.716,54.381,155.762"/>
<path fill="none" stroke="#000000" stroke-width="0.721" stroke-miterlimit="2.613" d="M54.381,155.762
	c-0.899,2.04-2.498,4.112-4.592,4.12c0.68-1.401,0.683-2.656,0.262-4.091c-0.894-3.058,0.764-5.564,4.589-7.026
	c-0.64,1.131-0.771,2.428-0.359,3.84C54.605,153.714,54.677,154.716,54.381,155.762z"/>
<path fill="#FFF200" d="M58.609,152.576c-0.897,2.042-2.498,4.114-4.59,4.122c0.678-1.402,0.681-2.657,0.262-4.093
	c-0.894-3.055,0.763-5.564,4.589-7.024c-0.639,1.131-0.773,2.429-0.359,3.844C58.834,150.53,58.905,151.53,58.609,152.576"/>
<path fill="none" stroke="#000000" stroke-width="0.721" stroke-miterlimit="2.613" d="M58.609,152.576
	c-0.897,2.042-2.498,4.114-4.59,4.122c0.678-1.402,0.681-2.657,0.262-4.093c-0.894-3.055,0.763-5.564,4.589-7.024
	c-0.639,1.131-0.773,2.429-0.359,3.844C58.834,150.53,58.905,151.53,58.609,152.576z"/>
<path fill="#FFF200" d="M62.84,149.391c-0.897,2.042-2.498,4.115-4.592,4.122c0.68-1.401,0.683-2.657,0.264-4.089
	c-0.895-3.06,0.763-5.57,4.587-7.027c-0.637,1.131-0.771,2.425-0.359,3.841C63.065,147.345,63.138,148.346,62.84,149.391"/>
<path fill="none" stroke="#000000" stroke-width="0.721" stroke-miterlimit="2.613" d="M62.84,149.391
	c-0.897,2.042-2.498,4.115-4.592,4.122c0.68-1.401,0.683-2.657,0.264-4.089c-0.895-3.06,0.763-5.57,4.587-7.027
	c-0.637,1.131-0.771,2.425-0.359,3.841C63.065,147.345,63.138,148.346,62.84,149.391z"/>
<path fill="#FFF200" d="M71.19,137.379c1.36,0.577,1.445,1.427,1.375,3.236c-0.082,2.092-2.609,6.527-5.857,6.527
	c0.673-1.377,0.671-2.613,0.248-4.025C65.932,139.711,68.077,136.392,71.19,137.379"/>
<path fill="none" stroke="#000000" stroke-width="0.721" stroke-miterlimit="2.613" d="M71.19,137.379
	c1.36,0.577,1.445,1.427,1.375,3.236c-0.082,2.092-2.609,6.527-5.857,6.527c0.673-1.377,0.671-2.613,0.248-4.025
	C65.932,139.711,68.077,136.392,71.19,137.379z"/>
<path fill="#FFF200" d="M67.072,146.198c-0.897,2.045-2.498,4.122-4.595,4.129c0.679-1.4,0.683-2.656,0.262-4.089
	c-0.878-3.006,0.707-5.479,4.392-6.952c-0.485,1.075-0.593,2.447-0.175,3.831C67.279,144.202,67.357,145.181,67.072,146.198"/>
<path fill="none" stroke="#000000" stroke-width="0.721" stroke-miterlimit="2.613" d="M67.072,146.198
	c-0.897,2.045-2.498,4.122-4.595,4.129c0.679-1.4,0.683-2.656,0.262-4.089c-0.878-3.006,0.707-5.479,4.392-6.952
	c-0.485,1.075-0.593,2.447-0.175,3.831C67.279,144.202,67.357,145.181,67.072,146.198z"/>
<path fill="#FFF200" d="M188.03,179.646c0.926,1.341,2.547,1.939,4.356,0.576c2.882-2.166,0.646-8.845-4.322-9.312
	c0.873,1.406,0.982,2.979,0.271,4.629c-0.597,1.38-0.75,2.633-0.245,4.112C188.07,179.651,188.051,179.646,188.03,179.646"/>
<path fill="none" stroke="#000000" stroke-width="0.721" stroke-miterlimit="2.613" d="M188.03,179.646
	c0.926,1.341,2.547,1.939,4.356,0.576c2.882-2.166,0.646-8.845-4.322-9.312c0.873,1.406,0.982,2.979,0.271,4.629
	c-0.597,1.38-0.75,2.633-0.245,4.112C188.07,179.651,188.051,179.646,188.03,179.646z"/>
<path fill="#FFF200" d="M184.621,176.547c0.746,1.565,1.895,2.903,3.47,3.103c-0.505-1.479-0.352-2.733,0.244-4.112
	c1.404-3.251-0.385-6.223-4.94-8.167c1.326,1.414,1.724,3.14,1.099,5.06c-0.465,1.427-0.5,2.687,0.14,4.119L184.621,176.547"/>
<path fill="none" stroke="#000000" stroke-width="0.721" stroke-miterlimit="2.613" d="M184.621,176.547
	c0.746,1.565,1.895,2.903,3.47,3.103c-0.505-1.479-0.352-2.733,0.244-4.112c1.404-3.251-0.385-6.223-4.94-8.167
	c1.326,1.414,1.724,3.14,1.099,5.06c-0.465,1.427-0.5,2.687,0.14,4.119L184.621,176.547z"/>
<path fill="#FFF200" d="M180.237,172.491c0.858,2.007,2.365,3.989,4.395,4.06c-0.639-1.433-0.604-2.692-0.139-4.119
	c0.985-3.029-0.576-5.59-4.326-7.177c0.535,1.114,0.598,2.366,0.163,3.709C179.928,170.19,179.845,171.296,180.237,172.491"/>
<path fill="none" stroke="#000000" stroke-width="0.721" stroke-miterlimit="2.613" d="M180.237,172.491
	c0.858,2.007,2.365,3.989,4.395,4.06c-0.639-1.433-0.603-2.692-0.139-4.119c0.985-3.029-0.576-5.59-4.326-7.177
	c0.535,1.114,0.598,2.366,0.163,3.709C179.928,170.19,179.845,171.296,180.237,172.491z"/>
<path fill="#FFF200" d="M175.977,168.797c0.84,2.083,2.385,4.213,4.489,4.285c-0.638-1.43-0.604-2.689-0.137-4.12
	c0.993-3.046-0.598-5.617-4.399-7.204c0.61,1.153,0.702,2.463,0.242,3.873C175.813,166.737,175.711,167.739,175.977,168.797"/>
<path fill="none" stroke="#000000" stroke-width="0.721" stroke-miterlimit="2.613" d="M175.977,168.797
	c0.84,2.083,2.385,4.213,4.489,4.285c-0.638-1.43-0.604-2.689-0.137-4.12c0.993-3.046-0.598-5.617-4.399-7.204
	c0.61,1.153,0.702,2.463,0.242,3.873C175.813,166.737,175.711,167.739,175.977,168.797z"/>
<path d="M171.824,165.466c0.839,2.082,2.384,4.212,4.49,4.286c-0.642-1.433-0.605-2.693-0.142-4.121
	c0.993-3.045-0.595-5.62-4.395-7.204c0.605,1.154,0.7,2.463,0.243,3.872C171.66,163.403,171.556,164.407,171.824,165.466"/>
<path fill="#FFF200" d="M171.824,165.466c0.839,2.082,2.384,4.212,4.49,4.286c-0.642-1.433-0.605-2.693-0.142-4.121
	c0.993-3.045-0.595-5.62-4.395-7.204c0.605,1.154,0.7,2.463,0.243,3.872C171.66,163.403,171.556,164.407,171.824,165.466"/>
<path fill="none" stroke="#000000" stroke-width="0.721" stroke-miterlimit="2.613" d="M171.824,165.466
	c0.839,2.082,2.384,4.212,4.49,4.286c-0.642-1.433-0.605-2.693-0.142-4.121c0.993-3.045-0.595-5.62-4.395-7.204
	c0.605,1.154,0.7,2.463,0.243,3.872C171.66,163.403,171.556,164.407,171.824,165.466z"/>
<path fill="#FFF200" d="M167.668,162.134c0.841,2.082,2.384,4.213,4.491,4.286c-0.643-1.432-0.605-2.691-0.138-4.121
	c0.99-3.045-0.598-5.62-4.399-7.204c0.609,1.154,0.702,2.463,0.245,3.873C167.504,160.073,167.401,161.076,167.668,162.134"/>
<path fill="none" stroke="#000000" stroke-width="0.721" stroke-miterlimit="2.613" d="M167.668,162.134
	c0.841,2.082,2.384,4.213,4.491,4.286c-0.643-1.432-0.605-2.691-0.138-4.121c0.99-3.045-0.598-5.62-4.399-7.204
	c0.609,1.154,0.702,2.463,0.245,3.873C167.504,160.073,167.401,161.076,167.668,162.134z"/>
<path fill="#FFF200" d="M163.515,158.801c0.841,2.083,2.384,4.215,4.488,4.288c-0.64-1.433-0.604-2.692-0.137-4.121
	c0.99-3.047-0.598-5.621-4.4-7.204c0.61,1.155,0.703,2.463,0.244,3.872C163.351,156.739,163.246,157.744,163.515,158.801"/>
<path fill="none" stroke="#000000" stroke-width="0.721" stroke-miterlimit="2.613" d="M163.515,158.801
	c0.841,2.083,2.384,4.215,4.488,4.288c-0.64-1.433-0.604-2.692-0.137-4.121c0.99-3.047-0.598-5.621-4.4-7.204
	c0.61,1.155,0.703,2.463,0.244,3.872C163.351,156.739,163.246,157.744,163.515,158.801z"/>
<path fill="#FFF200" d="M159.36,155.469c0.838,2.082,2.384,4.214,4.489,4.286c-0.641-1.431-0.604-2.69-0.14-4.119
	c0.991-3.047-0.596-5.62-4.398-7.204c0.608,1.155,0.702,2.463,0.245,3.872C159.196,153.408,159.094,154.412,159.36,155.469"/>
<path fill="none" stroke="#000000" stroke-width="0.721" stroke-miterlimit="2.613" d="M159.36,155.469
	c0.838,2.082,2.384,4.214,4.489,4.286c-0.641-1.431-0.604-2.69-0.14-4.119c0.991-3.047-0.596-5.62-4.398-7.204
	c0.608,1.155,0.702,2.463,0.245,3.872C159.196,153.408,159.094,154.412,159.36,155.469z"/>
<path fill="#FFF200" d="M151.331,143.14c-1.384,0.537-1.497,1.39-1.48,3.212c0.018,2.105,2.423,6.641,5.688,6.739
	c-0.636-1.403-0.595-2.645-0.124-4.053C156.55,145.644,154.492,142.241,151.331,143.14"/>
<path fill="none" stroke="#000000" stroke-width="0.721" stroke-miterlimit="2.613" d="M151.331,143.14
	c-1.384,0.537-1.497,1.39-1.48,3.212c0.018,2.105,2.423,6.641,5.688,6.739c-0.636-1.403-0.595-2.645-0.124-4.053
	C156.55,145.644,154.492,142.241,151.331,143.14z"/>
<path d="M155.203,152.134c0.84,2.083,2.384,4.218,4.491,4.29c-0.64-1.432-0.603-2.691-0.137-4.12
	c0.974-2.993-0.543-5.529-4.201-7.12c0.452,1.094,0.52,2.476,0.059,3.854C155.054,150.12,154.948,151.1,155.203,152.134"/>
<path fill="#FFF200" d="M155.203,152.134c0.84,2.083,2.384,4.218,4.491,4.29c-0.64-1.432-0.603-2.691-0.137-4.12
	c0.974-2.993-0.543-5.529-4.201-7.12c0.452,1.094,0.52,2.476,0.059,3.854C155.054,150.12,154.948,151.1,155.203,152.134"/>
<path fill="none" stroke="#000000" stroke-width="0.721" stroke-miterlimit="2.613" d="M155.203,152.134
	c0.84,2.083,2.384,4.218,4.491,4.29c-0.64-1.432-0.603-2.691-0.137-4.12c0.974-2.993-0.543-5.529-4.201-7.12
	c0.452,1.094,0.52,2.476,0.059,3.854C155.054,150.12,154.948,151.1,155.203,152.134z"/>
<path fill="#FFF200" d="M195.697,170.177c0.994,1.277,2.639,1.773,4.355,0.312c2.73-2.32,0.11-8.814-4.848-8.98
	c0.951,1.34,1.154,2.898,0.545,4.577c-0.509,1.403-0.586,2.654,0.003,4.099C195.733,170.181,195.716,170.178,195.697,170.177"/>
<path fill="none" stroke="#000000" stroke-width="0.721" stroke-miterlimit="2.613" d="M195.697,170.177
	c0.994,1.277,2.639,1.773,4.355,0.312c2.73-2.32,0.11-8.814-4.848-8.98c0.951,1.34,1.154,2.898,0.545,4.577
	c-0.509,1.403-0.586,2.654,0.003,4.099C195.733,170.181,195.716,170.178,195.697,170.177z"/>
<path fill="#FFF200" d="M192.125,167.308c0.833,1.51,2.054,2.769,3.628,2.876c-0.588-1.444-0.512-2.694-0.003-4.099
	c1.199-3.312-0.752-6.152-5.39-7.812c1.397,1.325,1.896,3.018,1.392,4.954c-0.376,1.447-0.335,2.701,0.386,4.08H192.125"/>
<path fill="none" stroke="#000000" stroke-width="0.721" stroke-miterlimit="2.613" d="M192.125,167.308
	c0.833,1.51,2.054,2.769,3.628,2.876c-0.588-1.444-0.512-2.694-0.003-4.099c1.199-3.312-0.752-6.152-5.39-7.812
	c1.397,1.325,1.896,3.018,1.392,4.954c-0.376,1.447-0.335,2.701,0.386,4.08H192.125z"/>
<path fill="#FFF200" d="M187.53,163.545c0.974,1.94,2.589,3.817,4.606,3.763c-0.721-1.379-0.762-2.633-0.385-4.08
	c0.799-3.062-0.906-5.509-4.722-6.86c0.597,1.074,0.733,2.312,0.38,3.67C187.088,161.282,187.071,162.385,187.53,163.545"/>
<path fill="none" stroke="#000000" stroke-width="0.721" stroke-miterlimit="2.613" d="M187.53,163.545
	c0.974,1.94,2.589,3.817,4.606,3.763c-0.721-1.379-0.762-2.633-0.385-4.08c0.799-3.062-0.906-5.509-4.722-6.86
	c0.597,1.074,0.733,2.312,0.38,3.67C187.088,161.282,187.071,162.385,187.53,163.545z"/>
<path fill="#FFF200" d="M183.084,160.136c0.957,2.015,2.618,4.036,4.711,3.982c-0.719-1.38-0.76-2.634-0.385-4.081
	c0.803-3.082-0.929-5.541-4.794-6.884c0.672,1.109,0.844,2.401,0.472,3.825C182.797,158.099,182.755,159.1,183.084,160.136"/>
<path fill="none" stroke="#000000" stroke-width="0.721" stroke-miterlimit="2.613" d="M183.084,160.136
	c0.957,2.015,2.618,4.036,4.711,3.982c-0.719-1.38-0.76-2.634-0.385-4.081c0.803-3.082-0.929-5.541-4.794-6.884
	c0.672,1.109,0.844,2.401,0.472,3.825C182.797,158.099,182.755,159.1,183.084,160.136z"/>
<path fill="#FFF200" d="M178.762,157.078c0.957,2.017,2.618,4.039,4.712,3.985c-0.722-1.381-0.762-2.635-0.385-4.083
	c0.802-3.08-0.928-5.541-4.795-6.883c0.672,1.107,0.844,2.401,0.472,3.827C178.475,155.042,178.433,156.043,178.762,157.078"/>
<path fill="none" stroke="#000000" stroke-width="0.721" stroke-miterlimit="2.613" d="M178.762,157.078
	c0.957,2.017,2.618,4.039,4.712,3.985c-0.722-1.381-0.762-2.635-0.385-4.083c0.802-3.08-0.928-5.541-4.795-6.883
	c0.672,1.107,0.844,2.401,0.472,3.827C178.475,155.042,178.433,156.043,178.762,157.078z"/>
<path fill="#FFF200" d="M174.44,154.019c0.956,2.017,2.615,4.039,4.709,3.985c-0.72-1.382-0.761-2.634-0.385-4.08
	c0.805-3.084-0.928-5.541-4.795-6.888c0.673,1.112,0.845,2.403,0.475,3.831C174.153,151.985,174.11,152.986,174.44,154.019"/>
<path fill="none" stroke="#000000" stroke-width="0.721" stroke-miterlimit="2.613" d="M174.44,154.019
	c0.956,2.017,2.615,4.039,4.709,3.985c-0.72-1.382-0.761-2.634-0.385-4.08c0.805-3.084-0.928-5.541-4.795-6.888
	c0.673,1.112,0.845,2.403,0.475,3.831C174.153,151.985,174.11,152.986,174.44,154.019z"/>
<path fill="#FFF200" d="M170.116,150.962c0.957,2.014,2.617,4.036,4.712,3.982c-0.719-1.378-0.762-2.633-0.383-4.077
	c0.801-3.083-0.93-5.544-4.799-6.887c0.675,1.111,0.846,2.403,0.477,3.827C169.831,148.926,169.788,149.928,170.116,150.962"/>
<path fill="none" stroke="#000000" stroke-width="0.721" stroke-miterlimit="2.613" d="M170.116,150.962
	c0.957,2.014,2.617,4.036,4.712,3.982c-0.719-1.378-0.762-2.633-0.383-4.077c0.801-3.083-0.93-5.544-4.799-6.887
	c0.675,1.111,0.846,2.403,0.477,3.827C169.831,148.926,169.788,149.928,170.116,150.962z"/>
<path fill="#FFF200" d="M165.793,147.905c0.958,2.015,2.619,4.039,4.712,3.985c-0.721-1.38-0.762-2.636-0.382-4.082
	c0.8-3.081-0.929-5.541-4.8-6.885c0.675,1.11,0.847,2.402,0.475,3.827C165.506,145.868,165.464,146.872,165.793,147.905"/>
<path fill="none" stroke="#000000" stroke-width="0.721" stroke-miterlimit="2.613" d="M165.793,147.905
	c0.958,2.015,2.619,4.039,4.712,3.985c-0.721-1.38-0.762-2.636-0.382-4.082c0.8-3.081-0.929-5.541-4.8-6.885
	c0.675,1.11,0.847,2.402,0.475,3.827C165.506,145.868,165.464,146.872,165.793,147.905z"/>
<path fill="#FFF200" d="M157.088,136.149c-1.344,0.617-1.402,1.469-1.278,3.276c0.144,2.09,2.803,6.445,6.05,6.349
	c-0.715-1.355-0.748-2.59-0.367-4.014C162.414,138.321,160.171,135.069,157.088,136.149"/>
<path fill="none" stroke="#000000" stroke-width="0.721" stroke-miterlimit="2.613" d="M157.088,136.149
	c-1.344,0.617-1.402,1.469-1.278,3.276c0.144,2.09,2.803,6.445,6.05,6.349c-0.715-1.355-0.748-2.59-0.367-4.014
	C162.414,138.321,160.171,135.069,157.088,136.149z"/>
<path fill="#FFF200" d="M161.469,144.842c0.956,2.017,2.618,4.043,4.713,3.988c-0.72-1.38-0.76-2.633-0.383-4.08
	c0.788-3.028-0.868-5.454-4.596-6.816c0.516,1.06,0.666,2.427,0.289,3.825C161.199,142.852,161.152,143.833,161.469,144.842"/>
<path fill="none" stroke="#000000" stroke-width="0.721" stroke-miterlimit="2.613" d="M161.469,144.842
	c0.956,2.017,2.618,4.043,4.713,3.988c-0.72-1.38-0.76-2.633-0.383-4.08c0.788-3.028-0.868-5.454-4.596-6.816
	c0.516,1.06,0.666,2.427,0.289,3.825C161.199,142.852,161.152,143.833,161.469,144.842z"/>
<path fill="#FFF200" d="M39.996,46.245c-0.928-1.34-2.551-1.931-4.358-0.562c-2.873,2.18-0.61,8.849,4.358,9.297
	c-0.878-1.404-0.993-2.979-0.287-4.628c0.59-1.382,0.739-2.636,0.228-4.117C39.956,46.238,39.975,46.242,39.996,46.245"/>
<path fill="none" stroke="#000000" stroke-width="0.721" stroke-miterlimit="2.613" d="M39.996,46.245
	c-0.928-1.34-2.551-1.931-4.358-0.562c-2.873,2.18-0.61,8.849,4.358,9.297c-0.878-1.404-0.993-2.979-0.287-4.628
	c0.59-1.382,0.739-2.636,0.228-4.117C39.956,46.238,39.975,46.242,39.996,46.245z"/>
<path fill="#FFF200" d="M43.419,49.327c-0.751-1.564-1.906-2.895-3.482-3.092c0.511,1.482,0.362,2.735-0.228,4.117
	c-1.394,3.256,0.408,6.219,4.97,8.147c-1.331-1.409-1.733-3.135-1.117-5.053c0.459-1.432,0.49-2.691-0.155-4.119H43.419"/>
<path fill="none" stroke="#000000" stroke-width="0.721" stroke-miterlimit="2.613" d="M43.419,49.327
	c-0.751-1.564-1.906-2.895-3.482-3.092c0.511,1.482,0.362,2.735-0.228,4.117c-1.394,3.256,0.408,6.219,4.97,8.147
	c-1.331-1.409-1.733-3.135-1.117-5.053c0.459-1.432,0.49-2.691-0.155-4.119H43.419z"/>
<path fill="#FFF200" d="M47.819,53.367c-0.866-2.003-2.383-3.979-4.412-4.04c0.646,1.428,0.615,2.688,0.156,4.119
	c-0.975,3.03,0.597,5.585,4.354,7.158c-0.539-1.113-0.609-2.364-0.176-3.708C48.137,55.666,48.215,54.561,47.819,53.367"/>
<path fill="none" stroke="#000000" stroke-width="0.721" stroke-miterlimit="2.613" d="M47.819,53.367
	c-0.866-2.003-2.383-3.979-4.412-4.04c0.646,1.428,0.615,2.688,0.156,4.119c-0.975,3.03,0.597,5.585,4.354,7.158
	c-0.539-1.113-0.609-2.364-0.176-3.708C48.137,55.666,48.215,54.561,47.819,53.367z"/>
<path fill="#FFF200" d="M52.092,57.042c-0.848-2.076-2.402-4.203-4.507-4.267c0.646,1.425,0.615,2.69,0.155,4.12
	c-0.98,3.05,0.617,5.616,4.426,7.186c-0.614-1.153-0.713-2.46-0.258-3.871C52.263,59.103,52.362,58.099,52.092,57.042"/>
<path fill="none" stroke="#000000" stroke-width="0.721" stroke-miterlimit="2.613" d="M52.092,57.042
	c-0.848-2.076-2.402-4.203-4.507-4.267c0.646,1.425,0.615,2.69,0.155,4.12c-0.98,3.05,0.617,5.616,4.426,7.186
	c-0.614-1.153-0.713-2.46-0.258-3.871C52.263,59.103,52.362,58.099,52.092,57.042z"/>
<path fill="#FFF200" d="M56.258,60.359c-0.845-2.078-2.399-4.203-4.504-4.268c0.645,1.427,0.614,2.69,0.154,4.12
	c-0.979,3.049,0.618,5.617,4.425,7.185c-0.612-1.152-0.711-2.46-0.257-3.871C56.432,62.419,56.531,61.414,56.258,60.359"/>
<path fill="none" stroke="#000000" stroke-width="0.721" stroke-miterlimit="2.613" d="M56.258,60.359
	c-0.845-2.078-2.399-4.203-4.504-4.268c0.645,1.427,0.614,2.69,0.154,4.12c-0.979,3.049,0.618,5.617,4.425,7.185
	c-0.612-1.152-0.711-2.46-0.257-3.871C56.432,62.419,56.531,61.414,56.258,60.359z"/>
<path fill="#FFF200" d="M60.427,63.674c-0.846-2.078-2.4-4.203-4.505-4.268c0.644,1.427,0.613,2.689,0.155,4.119
	c-0.982,3.051,0.617,5.617,4.425,7.187c-0.613-1.151-0.711-2.46-0.259-3.872C60.599,65.734,60.697,64.731,60.427,63.674"/>
<path fill="none" stroke="#000000" stroke-width="0.721" stroke-miterlimit="2.613" d="M60.427,63.674
	c-0.846-2.078-2.4-4.203-4.505-4.268c0.644,1.427,0.613,2.689,0.155,4.119c-0.982,3.051,0.617,5.617,4.425,7.187
	c-0.613-1.151-0.711-2.46-0.259-3.872C60.599,65.734,60.697,64.731,60.427,63.674z"/>
<path fill="#FFF200" d="M64.594,66.989c-0.847-2.077-2.399-4.202-4.506-4.267c0.646,1.426,0.614,2.689,0.154,4.119
	c-0.979,3.051,0.619,5.617,4.427,7.187c-0.613-1.154-0.713-2.461-0.258-3.872C64.766,69.051,64.865,68.047,64.594,66.989"/>
<path fill="none" stroke="#000000" stroke-width="0.721" stroke-miterlimit="2.613" d="M64.594,66.989
	c-0.847-2.077-2.399-4.202-4.506-4.267c0.646,1.426,0.614,2.689,0.154,4.119c-0.979,3.051,0.619,5.617,4.427,7.187
	c-0.613-1.154-0.713-2.461-0.258-3.872C64.766,69.051,64.865,68.047,64.594,66.989z"/>
<path fill="#FFF200" d="M68.763,70.304c-0.848-2.076-2.402-4.201-4.507-4.267c0.646,1.428,0.615,2.689,0.155,4.119
	c-0.98,3.051,0.617,5.618,4.427,7.187c-0.614-1.154-0.713-2.461-0.259-3.87C68.935,72.366,69.033,71.363,68.763,70.304"/>
<path fill="none" stroke="#000000" stroke-width="0.721" stroke-miterlimit="2.613" d="M68.763,70.304
	c-0.848-2.076-2.402-4.201-4.507-4.267c0.646,1.428,0.615,2.689,0.155,4.119c-0.98,3.051,0.617,5.618,4.427,7.187
	c-0.614-1.154-0.713-2.461-0.259-3.87C68.935,72.366,69.033,71.363,68.763,70.304z"/>
<path fill="#FFF200" d="M76.838,82.606c1.382-0.542,1.491-1.398,1.468-3.219c-0.025-2.108-2.448-6.632-5.716-6.719
	c0.642,1.402,0.608,2.645,0.143,4.055C71.613,80.121,73.679,83.515,76.838,82.606"/>
<path fill="none" stroke="#000000" stroke-width="0.721" stroke-miterlimit="2.613" d="M76.838,82.606
	c1.382-0.542,1.491-1.398,1.468-3.219c-0.025-2.108-2.448-6.632-5.716-6.719c0.642,1.402,0.608,2.645,0.143,4.055
	C71.613,80.121,73.679,83.515,76.838,82.606z"/>
<path fill="#FFF200" d="M72.932,73.626c-0.847-2.079-2.399-4.208-4.507-4.273c0.644,1.428,0.614,2.688,0.154,4.119
	c-0.964,2.997,0.562,5.528,4.227,7.105c-0.457-1.092-0.528-2.475-0.072-3.855C73.089,75.639,73.192,74.659,72.932,73.626"/>
<path fill="none" stroke="#000000" stroke-width="0.721" stroke-miterlimit="2.613" d="M72.932,73.626
	c-0.847-2.079-2.399-4.208-4.507-4.273c0.644,1.428,0.614,2.688,0.154,4.119c-0.964,2.997,0.562,5.528,4.227,7.105
	c-0.457-1.092-0.528-2.475-0.072-3.855C73.089,75.639,73.192,74.659,72.932,73.626z"/>
<path d="M73.756,50.18c1.903-1.37,2.497-2.409,1.488-3.811c-1.107-1.534-2.269-1.103-4.22,0.305l-0.986,0.709l2.601,3.606
	L73.756,50.18 M77.401,55.237l0.785-0.567l0.915,1.27l-6.006,4.33l-0.915-1.269l0.649-0.469c0.969-0.698,1.03-0.894,0.356-1.827
	l-4.751-6.59c-0.673-0.935-0.879-0.937-1.848-0.241l-0.651,0.47l-0.914-1.268l5.889-4.248c3.038-2.189,5.33-2.245,6.786-0.227
	c0.805,1.118,0.978,2.237,0.538,3.418c-0.36,0.944-1.444,1.901-3.129,3.117l-1.553,1.12l1.986,2.752
	C76.212,55.942,76.434,55.933,77.401,55.237"/>
<path d="M87.287,44.154c1.812-0.672,2.447-1.567,1.937-2.934c-0.556-1.506-1.589-1.626-3.441-0.939l-2.217,0.823l1.445,3.895
	L87.287,44.154 M88.573,50.632l0.906-0.336l0.542,1.466l-6.942,2.576l-0.543-1.466l0.752-0.28c1.12-0.415,1.229-0.588,0.83-1.667
	l-2.828-7.618c-0.4-1.079-0.598-1.137-1.716-0.722l-0.753,0.278l-0.543-1.465l7.734-2.869c3.199-1.189,5.147-0.79,5.935,1.33
	c0.684,1.85-0.145,3.453-2.488,4.651c2.102-0.428,2.855,0.126,3.622,1.837l0.507,1.129c0.344,0.751,0.543,1.049,0.986,0.885
	c0.578-0.215,0.343-0.851-0.212-2.402l1.236-0.458c0.103,0.225,0.183,0.438,0.262,0.65c0.873,2.352,0.455,3.713-1.415,4.408
	c-1.541,0.571-2.758,0.014-3.373-1.468l-0.617-1.482c-0.85-2.055-1.737-2.318-3.974-1.489l-0.926,0.344l1.281,3.451
	C87.238,50.996,87.454,51.048,88.573,50.632"/>
<path d="M99.967,31.121c0.494-0.574,0.899-0.926,1.429-1.006c0.608-0.092,1.152,0.201,1.227,0.689
	c0.062,0.407-0.242,0.744-0.892,1.134l-3.039,1.768l-1.139,0.172L99.967,31.121 M97.878,47.746l0.876-0.133
	c1.178-0.178,1.322-0.325,1.151-1.463l-1.213-8.033c-0.172-1.139-0.353-1.236-1.533-1.058l-0.874,0.131l-0.232-1.546l7.362-1.111
	l0.232,1.544l-0.874,0.134c-1.18,0.179-1.322,0.324-1.152,1.463l1.212,8.033c0.173,1.139,0.355,1.236,1.533,1.059l0.875-0.132
	l0.235,1.545l-7.364,1.111L97.878,47.746z"/>
<path d="M107.436,42.082l1.605-0.01c0.471,2.752,2.126,4.222,4.657,4.204c1.851-0.012,2.834-0.657,2.826-1.808
	c-0.008-1.07-0.751-1.683-2.359-2.042l-2.245-0.499c-3.09-0.698-4.539-1.839-4.554-4.061c-0.017-2.571,1.903-4.311,4.949-4.334
	c1.501-0.01,2.78,0.434,4.019,1.391l0.714-1.012l1.233-0.009l0.038,5.225l-1.565,0.011c-0.49-2.547-2.104-3.934-4.346-3.919
	c-1.685,0.011-2.607,0.698-2.6,1.788c0.007,0.965,0.669,1.474,2.048,1.774l2.782,0.619c2.946,0.658,4.417,2.067,4.432,4.268
	c0.019,2.592-2.045,4.456-5.131,4.479c-1.563,0.01-3.069-0.555-4.6-1.675l-0.442,1.298l-1.419,0.011L107.436,42.082"/>
<path d="M126.47,36.539c-2.201-0.426-3.353,0.651-3.927,3.513l-1.554-0.301l1.084-5.613l12.763,2.469l-1.084,5.614l-1.555-0.301
	c0.525-2.83-0.133-4.298-2.313-4.722l-0.304-0.057l-1.793,9.268c-0.22,1.131-0.06,1.287,1.11,1.514l1.15,0.223l-0.297,1.535
	l-7.854-1.52l0.298-1.534l1.171,0.226c1.172,0.226,1.355,0.136,1.575-0.994l1.793-9.27L126.47,36.539"/>
<path d="M142.316,42.583l-3.289,3.82l3.166,1.275L142.316,42.583 M132.188,48.459l0.401,0.162c1.01,0.407,1.504,0.229,2.195-0.556
	l7.642-8.675l2.691,1.084l-0.259,11.649c-0.029,1.118-0.022,1.431,1.046,1.862l0.381,0.155l-0.583,1.449l-6.621-2.666l0.584-1.451
	l1.033,0.415c0.724,0.292,1.096,0.354,1.266-0.066c0.069-0.171,0.078-0.412,0.084-0.7l0.051-1.728l-4.214-1.698l-1.208,1.398
	c-0.175,0.216-0.32,0.358-0.383,0.511c-0.169,0.42,0.167,0.577,0.855,0.854l0.989,0.4l-0.582,1.448l-5.952-2.397L132.188,48.459z"/>
<path d="M150.43,45.217c0.242-0.951,0.168-1.471-0.583-1.973l-0.496-0.332l0.87-1.299l5.998,4.019l-0.87,1.297l-0.888-0.594
	c-0.617-0.411-0.999-0.47-1.238-0.112c-0.138,0.205-0.263,0.541-0.377,1.009l-1.869,7.367l6.35-4.56
	c0.367-0.251,0.595-0.518,0.675-0.639c0.274-0.41,0.013-0.682-0.755-1.199l-0.753-0.504l0.87-1.298l5.451,3.654l-0.87,1.298
	l-0.344-0.229c-0.921-0.618-1.366-0.472-2.224,0.143l-9.443,6.771l-2.372-1.593L150.43,45.217"/>
<path d="M65.378,176.7c-0.642,0.833-0.591,1.015,0.272,1.679l0.401,0.31l-0.871,1.132l-4.996-3.851l0.87-1.133l0.58,0.447
	c0.863,0.665,1.051,0.669,1.692-0.164l4.527-5.874c0.642-0.836,0.591-1.013-0.271-1.679l-0.581-0.446l0.872-1.132l5.071,3.91
	l-0.87,1.128l-0.477-0.366c-0.861-0.663-1.049-0.667-1.691,0.166l-2.165,2.811l5.788-0.562c0.29-0.039,0.471-0.088,0.552-0.191
	c0.103-0.135-0.045-0.342-0.446-0.653l-0.654-0.505l0.871-1.128l5.026,3.873l-0.871,1.129l-0.343-0.263
	c-0.891-0.688-1.999-0.76-3.547-0.623l-2.488,0.213l-0.278,6.636c-0.041,1.037,0.158,1.332,0.84,1.859l0.507,0.39l-0.871,1.132
	l-5.547-4.276l0.872-1.131l0.802,0.618c0.432,0.334,0.648,0.452,0.832,0.215c0.126-0.164,0.152-0.38,0.167-0.679l0.217-4.523
	l-2.737,0.166L65.378,176.7"/>
<path d="M78.029,187.095c2.13,1.226,4.36,0.366,6.009-2.496c1.648-2.865,1.265-5.209-0.867-6.438
	c-2.131-1.227-4.366-0.39-6.015,2.473C75.507,183.498,75.898,185.868,78.029,187.095 M83.921,176.86
	c3.628,2.089,4.665,5.784,2.687,9.218c-1.976,3.435-5.7,4.406-9.329,2.317c-3.629-2.088-4.669-5.807-2.695-9.24
	C76.562,175.721,80.292,174.774,83.921,176.86"/>
<path d="M93.332,186.375c1.67,0.57,2.634,0.306,3.063-0.956c0.472-1.388-0.187-2.068-1.895-2.649l-2.043-0.696l-1.222,3.591
	L93.332,186.375 M90.507,191.702l0.834,0.284l-0.46,1.353l-6.398-2.179l0.46-1.352l0.694,0.237c1.031,0.35,1.21,0.292,1.548-0.702
	l2.391-7.021c0.34-0.994,0.233-1.149-0.798-1.503l-0.693-0.233l0.46-1.353l7.126,2.429c2.951,1.004,4.099,2.407,3.436,4.362
	c-0.582,1.706-2.095,2.36-4.444,1.859c1.733,0.907,1.949,1.732,1.504,3.386l-0.291,1.091c-0.189,0.729-0.223,1.057,0.187,1.196
	c0.533,0.18,0.733-0.406,1.236-1.822l1.137,0.386c-0.056,0.222-0.123,0.418-0.188,0.613c-0.739,2.167-1.818,2.89-3.542,2.304
	c-1.421-0.483-1.961-1.582-1.542-2.985l0.418-1.403c0.584-1.943,0.107-2.642-1.955-3.343l-0.852-0.291l-1.085,3.18
	C89.353,191.191,89.476,191.353,90.507,191.702"/>
<path d="M110.186,194.951l0.841,0.061c1.087,0.08,1.245-0.021,1.32-1.069l0.589-8.127l-4.82,10.417l-1.236-0.092l-3.012-11.188
	l-0.604,8.331c-0.074,1.05,0.067,1.172,1.155,1.252l0.748,0.055l-0.103,1.423l-5.881-0.426l0.104-1.424l0.673,0.05
	c1.087,0.077,1.244-0.023,1.322-1.072l0.534-7.396c0.075-1.048-0.066-1.172-1.153-1.251l-0.673-0.048l0.103-1.424l5.86,0.424
	l2.201,8.35l3.698-7.922l5.6,0.404l-0.104,1.423l-0.712-0.052c-1.085-0.078-1.261,0.023-1.339,1.071l-0.534,7.396
	c-0.074,1.05,0.084,1.173,1.169,1.253l0.713,0.051l-0.102,1.424l-6.461-0.468L110.186,194.951"/>
<path d="M124.346,194.942c2.428-0.381,3.625-2.449,3.113-5.714c-0.511-3.264-2.28-4.85-4.711-4.468
	c-2.428,0.381-3.646,2.434-3.135,5.697C120.124,193.723,121.915,195.323,124.346,194.942 M122.516,183.276
	c4.137-0.648,7.261,1.58,7.873,5.493c0.614,3.914-1.674,7.01-5.811,7.658c-4.136,0.646-7.281-1.598-7.896-5.511
	C116.07,187.003,118.382,183.925,122.516,183.276"/>
<path d="M136.881,185.945c1.692-0.501,2.324-1.274,1.945-2.553c-0.415-1.407-1.349-1.579-3.077-1.068l-2.068,0.614l1.076,3.635
	L136.881,185.945 M137.656,191.923l0.845-0.25l0.406,1.366l-6.481,1.921l-0.403-1.367l0.701-0.209
	c1.042-0.31,1.155-0.459,0.857-1.466l-2.108-7.111c-0.298-1.008-0.474-1.074-1.52-0.764l-0.7,0.205l-0.406-1.365l7.219-2.141
	c2.987-0.885,4.735-0.403,5.321,1.576c0.514,1.728-0.342,3.136-2.549,4.085c1.939-0.263,2.592,0.29,3.187,1.895l0.392,1.058
	c0.267,0.705,0.43,0.989,0.844,0.868c0.54-0.162,0.365-0.755-0.044-2.202l1.151-0.34c0.083,0.211,0.142,0.407,0.201,0.605
	c0.648,2.196,0.187,3.411-1.56,3.93c-1.439,0.424-2.513-0.157-2.982-1.545l-0.472-1.389c-0.646-1.923-1.438-2.215-3.527-1.596
	l-0.863,0.255l0.956,3.221C136.418,192.171,136.611,192.232,137.656,191.923"/>
<path d="M146.806,179.494l0.619,4.561l2.789-1.395L146.806,179.494 M144.694,189.971l0.353-0.177
	c0.89-0.444,1.066-0.889,0.949-1.838l-1.304-10.471l2.368-1.183l7.806,7.224c0.745,0.698,0.965,0.883,1.904,0.411l0.336-0.166
	l0.638,1.275l-5.827,2.91l-0.638-1.275l0.904-0.452c0.64-0.32,0.908-0.537,0.726-0.907c-0.076-0.149-0.235-0.303-0.429-0.478
	l-1.149-1.084l-3.712,1.854l0.226,1.671c0.04,0.251,0.05,0.436,0.116,0.571c0.187,0.368,0.497,0.234,1.1-0.067l0.874-0.438
	l0.639,1.278l-5.241,2.618L144.694,189.971z M145.038,173.348c0.27-0.64,0.521-1.061,0.957-1.275
	c0.505-0.253,1.058-0.151,1.26,0.252c0.168,0.335-0.002,0.712-0.453,1.232l-2.143,2.393l-0.942,0.47L145.038,173.348z"/>
<path d="M166.539,178.316l-11.248-4.246l4.723,6.051c0.65,0.83,0.835,0.828,1.696,0.154l0.679-0.529l0.878,1.124l-4.896,3.824
	l-0.879-1.124l0.695-0.543c0.857-0.671,0.906-0.851,0.26-1.68l-4.563-5.848c-0.646-0.826-0.836-0.822-1.692-0.154l-0.637,0.498
	l-0.879-1.125l4.248-3.314l10.021,3.774l-4.033-5.165c-0.647-0.828-0.835-0.823-1.693-0.154l-0.694,0.543l-0.878-1.126l4.69-3.661
	l0.879,1.125l-0.474,0.37c-0.858,0.667-0.922,0.863-0.275,1.689l6.158,7.89L166.539,178.316"/>
</svg>
